<?xml version="1.0" encoding="utf-8"?>
<!-- Generator: Adobe Illustrator 16.0.3, SVG Export Plug-In . SVG Version: 6.00 Build 0)  -->
<!DOCTYPE svg PUBLIC "-//W3C//DTD SVG 1.1//EN" "http://www.w3.org/Graphics/SVG/1.1/DTD/svg11.dtd">
<svg version="1.1" id="PILLS" xmlns="http://www.w3.org/2000/svg" xmlns:xlink="http://www.w3.org/1999/xlink" x="0px" y="0px"
	 width="200px" height="136px" viewBox="0 0 200 136" enable-background="new 0 0 200 136" xml:space="preserve">
<path fill="#F26522" d="M200,128c0,4.418-3.582,8-8,8H8c-4.418,0-8-3.582-8-8V8c0-4.418,3.582-8,8-8h184c4.418,0,8,3.582,8,8V128z"
	/>
<g>
	<path fill="none" d="M26.977,129c-0.001,0-0.002,0-0.003,0C26.975,129,26.976,129,26.977,129z"/>
	<path fill="none" d="M32.386,133.418c-0.686,0.111-1.374,0.202-2.059,0.27c1.364-0.129,2.739-0.357,4.086-0.66
		c-0.446,0.102-0.898,0.181-1.349,0.263C32.837,133.331,32.613,133.381,32.386,133.418z"/>
	<path fill="none" d="M34.463,133.016c0.637-0.143,1.268-0.302,1.889-0.474c-0.224,0.062-0.453,0.11-0.679,0.17
		C35.271,132.814,34.871,132.922,34.463,133.016z"/>
	<path fill="none" d="M28.973,128.593c-0.218,0.125-0.453,0.222-0.697,0.289C28.52,128.814,28.754,128.718,28.973,128.593z"/>
	<path fill="none" d="M30.238,128.799c0.066-0.08,0.127-0.165,0.185-0.251C30.365,128.635,30.304,128.719,30.238,128.799z"/>
	<path fill="none" d="M31.464,127.85c-0.017,0.053-0.036,0.104-0.054,0.153C31.428,127.952,31.447,127.902,31.464,127.85z"/>
	<path fill="none" d="M29.618,128.081c-0.173,0.187-0.368,0.345-0.581,0.474C29.25,128.426,29.445,128.268,29.618,128.081z"/>
	<path fill="none" d="M27.37,129.009c-0.125,0.001-0.252-0.001-0.378-0.012C27.118,129.007,27.244,129.01,27.37,129.009z"/>
	<path fill="none" d="M31.052,128.796c-0.02,0.034-0.039,0.068-0.059,0.101C31.013,128.864,31.033,128.83,31.052,128.796z"/>
	<path fill="none" d="M135.113,71.939c3.967,5.73,8.848,9.48,10.881,10.733c0.304,0.267,0.771,0.545,1.273,0.804
		c-4.053-9.58-7.764-18.354-8.432-19.934c-0.062,0.085-0.122,0.167-0.188,0.259C136.863,66.037,135.751,68.895,135.113,71.939z"/>
	<path fill="none" d="M30.228,128.693c-0.737,0.885-1.967,1.307-3.21,1.307c0.002,0,0.004,0,0.006,0
		C28.271,130,29.494,129.579,30.228,128.693z"/>
	<path fill="none" d="M43.412,128.562c-0.035,0.02-0.065,0.037-0.095,0.055c0.022-0.014,0.037-0.021,0.063-0.036
		C43.393,128.573,43.401,128.568,43.412,128.562z"/>
	<path fill="none" d="M26.343,128.886c-0.153-0.038-0.304-0.083-0.451-0.138c-0.049-0.018-0.095-0.042-0.143-0.061
		c-0.126-0.056-0.25-0.109-0.369-0.178c-0.064-0.035-0.122-0.076-0.185-0.115c-0.097-0.062-0.195-0.125-0.285-0.193
		c-0.072-0.057-0.135-0.12-0.202-0.182c-0.073-0.065-0.147-0.129-0.213-0.203c-0.069-0.078-0.128-0.162-0.19-0.248
		c-0.05-0.065-0.104-0.133-0.149-0.207c-0.06-0.096-0.104-0.204-0.151-0.312c-0.032-0.067-0.07-0.135-0.097-0.209
		c-0.041-0.118-0.065-0.248-0.09-0.375c-0.015-0.071-0.039-0.138-0.048-0.212c-0.019-0.146-0.013-0.301-0.011-0.452
		c0.002-0.065-0.008-0.127-0.001-0.194c0.018-0.226,0.061-0.459,0.13-0.701c-0.676,2.367,1.153,3.896,3.042,4.083
		c-0.167-0.019-0.334-0.044-0.499-0.082C26.402,128.904,26.373,128.895,26.343,128.886z"/>
	<path fill="none" d="M30.553,129.493c-0.036,0.04-0.071,0.08-0.107,0.118C30.482,129.573,30.518,129.533,30.553,129.493z"/>
	<path fill="none" d="M29.521,130.292c0.261-0.132,0.508-0.303,0.74-0.508c-0.025,0.022-0.049,0.047-0.074,0.067
		C29.976,130.027,29.753,130.173,29.521,130.292z"/>
	<path fill="none" d="M43.703,128.395c-0.05,0.03-0.1,0.06-0.146,0.084c0.042-0.021,0.078-0.043,0.124-0.069
		C43.688,128.402,43.696,128.398,43.703,128.395z"/>
	<path fill="none" d="M30.62,128.2c0.042-0.089,0.079-0.179,0.113-0.272C30.698,128.021,30.662,128.111,30.62,128.2z"/>
	<path fill="none" d="M30.803,129.186c-0.031,0.043-0.063,0.084-0.096,0.125C30.739,129.27,30.771,129.229,30.803,129.186z"/>
	<path fill="none" d="M30.45,128.507c0.051-0.08,0.097-0.164,0.141-0.25C30.547,128.343,30.5,128.427,30.45,128.507z"/>
	<path fill="none" d="M31.289,128.312c-0.021,0.049-0.042,0.1-0.064,0.146C31.247,128.413,31.268,128.361,31.289,128.312z"/>
	<path fill="none" d="M30.848,127.527c-0.025,0.121-0.058,0.236-0.096,0.349c0.038-0.112,0.07-0.228,0.096-0.347
		C30.848,127.529,30.848,127.529,30.848,127.527z"/>
	<path fill="none" d="M136.699,111.329c7.191-0.763,13.894-1.785,20.353-2.886l-19.366-3.269
		C137.552,107.311,137.229,109.374,136.699,111.329z"/>
	<path fill="none" d="M169.576,103.221c-0.735-2.218-2.146-6.422-2.922-8.378l-0.012-0.026l-0.009-0.025
		c0-0.003-0.024-0.247-0.481-0.587c-0.274-0.207-1.109-0.062-1.109-0.062c-1.867,0.4-4.074,0.81-6.499,1.209l3.322,7.961
		C163.968,103.342,166.652,103.337,169.576,103.221z"/>
	<path fill="none" d="M182.922,98.357c-0.333-1.371-1.527-5.127-2.345-7.108c-0.659,0.222-2.925,0.903-8.347,1.89
		c1.231,2.924,2.396,6.2,3.436,9.674c2.764-0.271,5.525-0.672,8.036-1.258L182.922,98.357z"/>
	<path fill="none" d="M173.578,131.419c0.098-0.058,0.768-0.489,0.771-1.685c-0.002-0.024-0.045-0.948-0.146-2.385
		c-5.248-2.836-10.116-7.498-13.667-13.392c-8.452,1.458-18.273,2.759-26.5,3.642c-0.49,0.799-1.029,1.562-1.621,2.291
		C140.452,133.415,158.281,135.564,173.578,131.419z"/>
	<path fill="none" d="M188.785,125.945c0.059-0.282,0.089-0.619,0.066-1.027c-0.479-4.171-1.742-10.979-2.574-15.48l-0.127-0.689
		c-1.625,0.413-6.039,1.521-8.424,1.962c0.957,4.271,1.686,8.644,2.096,12.877c2.375,1.017,4.873,1.751,7.419,2.152
		C187.372,125.745,187.989,125.784,188.785,125.945z"/>
	<path fill="none" d="M180.182,129.729c0.002,0.146,0.006,0.291,0.008,0.436c0.381-0.062,0.736-0.122,1.064-0.182
		C180.896,129.907,180.539,129.82,180.182,129.729z"/>
	<path fill="none" d="M134.402,79.667c0.027,3.528,0.475,6.827,1.05,9.226c0.375,1.182,0.706,2.363,0.991,3.545
		c4.67-0.479,9.488-1.078,13.879-1.685C144.439,88.802,138.668,84.924,134.402,79.667z"/>
	<path fill="none" d="M29.911,127.704c-0.071,0.112-0.15,0.213-0.234,0.31C29.761,127.917,29.84,127.816,29.911,127.704z"/>
	<path fill="none" d="M155.451,102.823c-0.833-1.97-1.776-4.199-2.78-6.572c-4.875,0.698-10.175,1.349-15.202,1.885
		c0.061,0.521,0.112,1.042,0.153,1.56L155.451,102.823z"/>
	<path fill="none" d="M173.52,120.02c-0.318-2.601-0.744-5.229-1.299-7.193l-0.016-0.055l-0.005-0.056
		c-0.013-0.159-0.111-0.657-0.384-0.849c-0.049-0.035-0.2-0.141-0.569-0.042c-1.47,0.35-3.084,0.698-4.804,1.042
		C168.32,115.584,170.741,118.011,173.52,120.02z"/>
	<path fill="none" d="M41.956,130.542c-0.625,0.276-1.285,0.546-1.971,0.808C40.672,131.089,41.331,130.818,41.956,130.542z"/>
	<path fill="none" d="M42.869,130.124c-0.227,0.106-0.459,0.215-0.696,0.321C42.41,130.339,42.643,130.23,42.869,130.124z"/>
	<path fill="none" d="M39.704,131.454c-0.246,0.091-0.496,0.181-0.748,0.271C39.208,131.635,39.457,131.545,39.704,131.454z"/>
	<path fill="none" d="M43.752,129.688c-0.206,0.105-0.417,0.213-0.635,0.317C43.334,129.898,43.546,129.793,43.752,129.688z"/>
	<path fill="none" d="M37.468,132.214c-0.249,0.077-0.5,0.15-0.753,0.222C36.968,132.364,37.219,132.29,37.468,132.214z"/>
	<path fill="none" d="M38.576,131.854c-0.229,0.078-0.46,0.153-0.693,0.229C38.116,132.007,38.347,131.932,38.576,131.854z"/>
	<path fill="none" d="M44.734,129.161c-0.245,0.139-0.504,0.278-0.771,0.418C44.23,129.439,44.489,129.3,44.734,129.161z"/>
	<path fill="none" d="M28.209,128.898c-0.247,0.062-0.502,0.099-0.762,0.106C27.707,128.998,27.962,128.962,28.209,128.898z"/>
	<path fill="none" d="M103.77,127.4c-0.009-0.002-0.017,0.095-0.022,0.092c0.491-0.696,0.918-1.354,1.285-2.07
		c0.008-0.015,0.017-0.005,0.024-0.021c0.318-0.625,0.588-1.443,0.82-2.08c-2.693,6.467-7.688,10.681-13.753,12.681h0.126
		C96.926,135,100.953,131.59,103.77,127.4z"/>
	<path fill="#F26522" d="M91.926,93.105c1.56,1.026,3.302,2.244,3.371,4.518c0.07,2.338-1.959,5.068-2.621,5.95
		c-0.851,1.133-3.543,4.319-7.037,2.102c0,0-5.066-3.146-8.639-5.276l-2.551,3.771c4.717,0.811,17.524,3.008,28.347,4.865
		c-0.614-4.518-2.104-8.645-3.005-12.244c1.579,3.386,3.229,7.707,4.152,12.441c0.791,0.136,1.568,0.27,2.328,0.397
		c-0.248-1.229-0.513-2.34-0.721-3.29c-0.424-1.941-2.15-6.076-3.683-11.122c-2.262-1.319-4.531-3.101-6.755-5.515
		c-0.035-0.031-3.787-3.604-7.045-6.855c-1.652,2.67-2.731,4.416-3.402,5.5L91.926,93.105z"/>
	<path fill="#F26522" d="M105.876,123.334c0.97-2.641,1.241-5.227,1.161-7.75c-0.812-0.139-1.661-0.23-2.536-0.379
		c-0.625,10.749-11.324,21.091-30.398,19.9c-7.976-0.297-16.492-4.162-21.574-6.932c-2.333-1.564-8.925-5.249-12.086-5.943
		c2.75,0.146,9.618,3.746,12.5,5.404c5.906,3.045,14.15,5.958,21.165,6.258c12.746,1.193,27.203-5.315,28.808-18.906
		c-12.655-2.144-29.826-5.049-32.283-5.465c-0.502,0.355-1.132,0.533-1.827,0.484c-1.292-0.087-2.542-0.881-3.042-1.932
		c-0.372-0.786-0.289-1.619,0.232-2.354c-0.008,0.014,6.071-9.048,6.071-9.048l0.244-0.475c-0.29-1.388,0.378-2.604,0.673-2.898
		c0.495-0.493,3.257-5.028,3.896-6.303c0.07-0.144,0.8-1.279,2.25-1.39c0.642-1.021,2.19-3.496,4.821-7.76
		c-0.21-1.207,0.347-2.375,1.206-3.045c0.279-0.218,0.561-0.383,0.841-0.5c3.237-5.238,6.857-10.958,7.861-12.458
		c1.164-1.595,2.068-2.654,3.11-3.845c0.37-0.422,1.214-1.102,1.585-1.394c0.484-0.653,1.208-1.16,1.955-1.379
		c0.011-0.06,0.054-0.127,0.152-0.207c2.618-2.134,6.312-3.472,6.312-3.472c4.932-2.063,13.713-4.438,22.686-6.236
		c-0.633-1.816-2.622-7.545-2.622-7.545c-0.101-0.25-1.483-3.073-0.392-4.774c0.467-0.727,1.371-1.141,2.484-1.136
		c0.004,0-0.003,0.008,0.287,0.026C121.482,18.092,105.473,4.028,84.025,0H59.063c-0.923,0.165-1.853,0.351-2.788,0.554
		C23.426,11.137-2.182,43.16,9.219,88.789c4.768,17.332,10.338,26.521,16.392,35.143c0,0,0.134,4.176,6.945,1.995
		c6.505-2.083,11.075-2.142,17.354,2.757c4.16,3.248,9.442,6.316,15.116,7.316h27.098C98.189,134,103.184,129.798,105.876,123.334z
		 M86.285,112.861c2.098,0.005,3.794,1.711,3.787,3.808c-0.004,1.562-0.95,2.897-2.298,3.478c-0.454,0.483-1.091,0.787-1.799,0.785
		c-0.987-0.005-1.835-0.596-2.233-1.447c-0.778-0.697-1.269-1.711-1.265-2.84C82.482,114.55,84.188,112.854,86.285,112.861z
		 M56.379,124.859c-0.545,0.455-1.283,0.633-2.05,0.57c-0.854,0.527-2.181,0.225-3.127-0.771c-0.875-0.925-1.14-2.146-0.72-2.976
		c-0.183-1.342,0.242-2.679,1.193-3.35c1.438-1.014,3.62-0.393,4.874,1.385C57.802,121.5,57.738,123.727,56.379,124.859z
		 M54.208,91.923c1.415-1.44,3.337-2.228,5.414-2.21c2.355,0.016,4.703,1.072,6.444,2.893c1.757,1.843,2.67,4.197,2.709,6.485
		l-5.165,7.63c-0.78,0.258-1.611,0.387-2.465,0.381c-2.355-0.018-4.704-1.069-6.443-2.894
		C51.289,100.632,51.069,95.121,54.208,91.923z M75.1,114.646c-6.375,6.739-19.006,6.694-26.18-2.496
		C61.063,123.414,72.39,115.973,75.1,114.646z"/>
	<path fill="#F26522" d="M91.344,77.486c2.327,2.533,5.748,6.255,8.456,8.945c-0.588-3.809-0.72-7.715,0.069-11.33
		c0.5-2.297,1.312-4.309,2.292-6.062l-2.321-5.058c-0.537,0.811-1.313,2-2.05,3.155C97.792,67.131,94.657,72.136,91.344,77.486z"/>
	<path fill="#F26522" d="M111.689,59.608c4.168-2.25,7.693-3.471,13.342-4.314c-0.028,0.002,1.648-0.229,1.648-0.229
		c1.12-0.17,3.266-0.613,3.881-1.732c0.353-0.639,0.498-1.481,0.448-2.506c-7.049,1.474-14.417,3.239-20.791,5.83
		c-2.177,0.784-3.907,1.897-5.603,2.988c0.517,1.098,1.134,2.412,1.828,3.894c1.404-1.34,2.791-2.353,3.925-3.073
		C110.552,60.306,111.689,59.608,111.689,59.608z"/>
	<path fill="#3F230D" d="M129.413,31.884c0.344,0.023,1.104,0.062,2.815,0.126l0.14-0.057c0.036-0.024,0.063-0.04,0.063-0.04
		l3.286-1.577C126.857,15.773,112.279,4.464,93.421,0h-9.396C105.473,4.028,121.482,18.092,129.413,31.884z"/>
	<path fill="#3F230D" d="M59.063,0h-0.999c-0.599,0.177-1.195,0.362-1.789,0.554C57.21,0.351,58.14,0.165,59.063,0z"/>
	<path fill="#FFFFFF" d="M135.721,30.336l0.151-0.073c0.812-0.242,1.787-0.483,1.787-0.483c2.231-0.118,3.47,1.24,4.116,2.403
		l0.358,0.028c-1.463-2.892-2.299-3.803-3.276-5.435C129.225,13.054,116.299,4.325,102.289,0h-8.868
		C112.279,4.464,126.857,15.773,135.721,30.336z"/>
	<path fill="#231F20" d="M74.107,133.893c-7.014-0.297-15.258-3.209-21.165-6.254c-2.882-1.658-9.75-5.255-12.5-5.399
		c3.161,0.694,9.753,4.385,12.086,5.948c5.082,2.771,13.598,6.646,21.574,6.942c19.074,1.19,29.773-9.126,30.398-19.875
		c-0.521-0.088-1.048-0.178-1.586-0.269C101.311,128.577,86.853,135.088,74.107,133.893z"/>
	<path fill="#231F20" d="M102.796,109.034c0.386,0.065,0.769,0.132,1.147,0.196c-0.922-4.733-2.573-9.057-4.152-12.44
		C100.689,100.391,102.182,104.518,102.796,109.034z"/>
	<path fill="#231F20" d="M61.146,107.102c0.854,0.006,1.686-0.123,2.465-0.381l5.165-7.63c-0.04-2.288-0.953-4.646-2.709-6.485
		c-1.741-1.819-4.088-2.877-6.444-2.893c-2.076-0.016-3.999,0.77-5.414,2.21c-3.14,3.198-2.919,8.709,0.494,12.285
		C56.442,106.031,58.79,107.084,61.146,107.102z"/>
	<path fill="#231F20" d="M75.1,114.646c-2.71,1.324-14.036,8.767-26.18-2.496C56.094,121.343,68.725,121.389,75.1,114.646z"/>
	<path fill="#231F20" d="M83.742,119.484c-0.154-0.332-0.243-0.7-0.242-1.092c0.004-1.399,1.119-2.533,2.489-2.526
		c1.371,0.005,2.479,1.141,2.475,2.54c-0.002,0.676-0.266,1.289-0.69,1.742c1.348-0.582,2.294-1.918,2.298-3.479
		c0.007-2.097-1.689-3.803-3.787-3.81c-2.097-0.006-3.803,1.688-3.808,3.785C82.474,117.773,82.964,118.786,83.742,119.484z
		 M87.603,116.296c-0.535-0.597-1.875-0.876-2.65-0.358c-0.348,0.207-0.706-0.069-0.263-0.521c0.868-0.753,2.484-0.713,3.226,0.393
		C88.289,116.355,87.891,116.73,87.603,116.296z M86.377,113.539c2.469-0.008,4.196,3.164,2.132,5.297
		c0.894-1.927,0.161-4.375-2.2-4.472c-2.46-0.104-3.272,2.36-2.844,3.646C82.636,117.232,82.922,113.555,86.377,113.539z"/>
	<path fill="#231F20" d="M85.989,115.866c-1.371-0.007-2.485,1.127-2.489,2.526c-0.001,0.392,0.088,0.76,0.242,1.092
		c0.397,0.852,1.246,1.441,2.233,1.447c0.708,0,1.345-0.303,1.799-0.785c0.424-0.453,0.688-1.065,0.69-1.742
		C88.468,117.007,87.36,115.871,85.989,115.866z M85.961,120.492c-1.141,0-2.067-0.94-2.067-2.094c0-1.157,0.926-2.094,2.067-2.094
		c1.143,0,2.068,0.937,2.068,2.094C88.029,119.552,87.104,120.492,85.961,120.492z"/>
	<path fill="#FFFFFF" d="M84.69,115.414c-0.443,0.452-0.085,0.73,0.263,0.523c0.775-0.52,2.115-0.239,2.65,0.356
		c0.288,0.437,0.686,0.062,0.313-0.489C87.174,114.701,85.558,114.661,84.69,115.414z"/>
	<path fill="#FFFFFF" d="M86.31,114.364c2.36,0.097,3.094,2.545,2.2,4.472c2.063-2.134,0.337-5.305-2.132-5.297
		c-3.455,0.016-3.741,3.693-2.912,4.471C83.037,116.727,83.849,114.264,86.31,114.364z"/>
	<path fill="#FFFFFF" d="M88.029,118.396c0-1.156-0.925-2.095-2.068-2.095c-1.141,0-2.067,0.938-2.067,2.095
		c0,1.153,0.926,2.095,2.067,2.095C87.104,120.492,88.029,119.552,88.029,118.396z M85.946,120.032c-0.913,0-1.654-0.74-1.654-1.653
		c0-0.914,0.741-1.654,1.654-1.654c0.913,0,1.653,0.74,1.653,1.654C87.599,119.292,86.858,120.032,85.946,120.032z"/>
	<path fill="#231F20" d="M85.946,116.727c-0.913,0-1.654,0.739-1.654,1.653c0,0.913,0.741,1.653,1.654,1.653
		c0.913,0,1.653-0.74,1.653-1.653C87.599,117.466,86.858,116.727,85.946,116.727z M84.723,118.434
		c0.049-0.207,0.143-0.103,0.19,0.053c0.449,0.716,1.704,0.771,2.086,0.22c0.194-0.281,0.188,0.104,0.188,0.104
		C86.401,120.364,84.602,119.384,84.723,118.434z"/>
	<path fill="#FFFFFF" d="M86.999,118.705c-0.382,0.552-1.637,0.496-2.086-0.219c-0.048-0.155-0.142-0.262-0.19-0.053
		c-0.121,0.949,1.678,1.931,2.465,0.377C87.188,118.812,87.193,118.424,86.999,118.705z"/>
	<path fill="#231F20" d="M51.675,118.336c-0.952,0.671-1.376,2.008-1.193,3.35c0.081-0.16,0.185-0.307,0.318-0.433
		c0.823-0.78,2.336-0.521,3.379,0.581c1.045,1.1,1.226,2.625,0.403,3.405c-0.078,0.073-0.164,0.136-0.253,0.19
		c0.768,0.062,1.505-0.115,2.05-0.57c1.359-1.133,1.422-3.36,0.169-5.139C55.295,117.943,53.114,117.323,51.675,118.336z
		 M54.852,122.1c-0.251-0.541-1.066-1.229-1.522-1.317c-0.459-0.091-0.284-0.837,0.268-0.646c0.512,0.175,1.31,0.853,1.506,1.173
		C55.612,122.143,55.07,122.566,54.852,122.1z M55.476,124.698c2.539-3.296-2.397-7.14-4.347-4.084
		C52.754,115.632,59.304,121.889,55.476,124.698z"/>
	<path fill="#231F20" d="M54.179,121.834c-1.043-1.102-2.557-1.361-3.379-0.581c-0.133,0.126-0.237,0.272-0.318,0.433
		c-0.42,0.83-0.156,2.051,0.72,2.976c0.946,0.993,2.273,1.298,3.127,0.771c0.089-0.056,0.175-0.117,0.253-0.191
		C55.405,124.459,55.225,122.934,54.179,121.834z M51.444,124.361c-0.886-0.936-1.039-2.229-0.341-2.891
		c0.698-0.662,1.982-0.443,2.869,0.49c0.886,0.936,1.039,2.229,0.341,2.891C53.617,125.516,52.331,125.294,51.444,124.361z"/>
	<path fill="#FFFFFF" d="M53.598,120.136c-0.552-0.19-0.728,0.556-0.268,0.646c0.456,0.087,1.271,0.776,1.522,1.317
		c0.218,0.467,0.76,0.043,0.252-0.791C54.908,120.986,54.11,120.311,53.598,120.136z"/>
	<path fill="#FFFFFF" d="M51.129,120.614c1.949-3.056,6.885,0.788,4.347,4.084C59.304,121.889,52.754,115.632,51.129,120.614z"/>
	<path fill="#FFFFFF" d="M53.973,121.962c-0.887-0.935-2.171-1.153-2.869-0.491c-0.698,0.661-0.545,1.956,0.341,2.891
		c0.887,0.935,2.172,1.154,2.869,0.49C55.011,124.191,54.859,122.896,53.973,121.962z M53.946,124.646
		c-0.581,0.434-1.558,0.084-2.28-0.578c-0.775-0.711-0.838-1.81-0.303-2.322c0.594-0.574,1.654-0.215,2.289,0.512
		C54.171,122.852,54.613,124.15,53.946,124.646z"/>
	<path fill="#231F20" d="M51.363,121.747c-0.536,0.514-0.472,1.61,0.303,2.323c0.722,0.66,1.699,1.011,2.28,0.578
		c0.667-0.498,0.226-1.797-0.293-2.391C53.017,121.532,51.957,121.173,51.363,121.747z M53.455,124.366
		c-1.189,0.11-2.253-1.329-1.812-1.97c0,0,0.323-0.446,0.383-0.029c0.103,0.708,0.852,1.445,1.56,1.631
		C53.757,124.044,53.811,124.305,53.455,124.366z"/>
	<path fill="#FFFFFF" d="M52.025,122.368c-0.06-0.417-0.383,0.03-0.383,0.03c-0.441,0.64,0.623,2.08,1.812,1.969
		c0.356-0.061,0.303-0.322,0.13-0.367C52.877,123.814,52.128,123.076,52.025,122.368z"/>
	<path fill="#231F20" d="M106.982,125.766l-0.562-0.074c-0.396,0.787-0.827,1.541-1.296,2.26c4.204,0.861,9.438,0.15,9.438,0.15
		c5.459-0.358,9.855-1.818,13.291-4.092c-0.43-0.675-0.836-1.367-1.215-2.08C122.246,124.904,115.896,126.488,106.982,125.766z"/>
	<path fill="#231F20" d="M131.759,118.727c0.21,0.397,0.433,0.784,0.658,1.164c0.592-0.727,1.131-1.492,1.621-2.291
		c-0.705,0.074-1.399,0.147-2.079,0.217c0,0-0.322,0.103-0.913,0.221L131.759,118.727z"/>
	<path fill="#231F20" d="M103.77,127.602c0.453-0.676,0.873-1.385,1.263-2.129c-0.367,0.717-0.794,1.424-1.285,2.12
		C103.753,127.596,103.762,127.598,103.77,127.602z"/>
	<path fill="#231F20" d="M99.8,86.432c0.518,0.514,1.011,0.991,1.462,1.416l0,0c-1.114-5.773-1.169-11.842,1.579-17.322
		l-0.681-1.484c-0.979,1.754-1.791,3.766-2.292,6.062C99.08,78.718,99.212,82.624,99.8,86.432z"/>
	<path fill="#231F20" d="M105.876,123.534c-0.233,0.634-0.502,1.266-0.821,1.892c1.412-2.721,2.371-5.91,2.766-9.609
		c-0.258-0.043-0.52-0.086-0.783-0.131C107.117,118.208,106.846,120.893,105.876,123.534z"/>
	<path fill="#FFFFFF" d="M106.982,125.766c8.914,0.724,15.264-0.858,19.658-3.836c-0.56-1.052-1.062-2.142-1.51-3.271l-0.25-0.353
		c-0.072-0.007-0.146-0.01-0.219-0.018c-1.82-0.107-6.398-0.591-7.994-0.973c-0.001,0-3.062-0.52-7.604-1.289
		c-0.324,3.666-1.244,6.882-2.645,9.664L106.982,125.766z"/>
	<path fill="#FFFFFF" d="M109.23,109.473c0.013,0.223,0.022,0.445,0.031,0.672c6.17,1.061,10.622,1.823,10.622,1.823
		c0.763,0.113,1.456,0.202,2.095,0.272l-5.662-12.342C114.914,103.438,112.422,107.17,109.23,109.473z"/>
	<path fill="#FFFFFF" d="M128.488,112.061c1.894-0.136,3.75-0.293,5.574-0.465c1.269-4.139,1.433-8.742,0.899-13.199
		c-4.237,0.429-8.187,0.765-11.386,0.963c-0.014,0-0.239-0.006-0.623-0.019c2.412,5.42,4.352,10.015,5.48,12.743
		C128.469,112.068,128.484,112.061,128.488,112.061z"/>
	<path fill="#FFFFFF" d="M116.857,85.943c1.17,2.546,2.334,5.084,3.453,7.543c0.342,0,0.545-0.002,0.554-0.002
		c3.579-0.024,8.161-0.332,13.036-0.793c-0.58-2.297-1.312-4.471-2.133-6.42C127.785,76.861,117.262,80.443,116.857,85.943z"/>
	<path fill="#FFFFFF" d="M136.995,63.41c-5.763,0.698-7.367,15.129-4.104,18.73C131.698,76.616,132.96,66.346,136.995,63.41z"/>
	<path fill="#FFFFFF" d="M104.645,96.621c-0.391-0.168-0.781-0.348-1.172-0.54c1.442,4.405,3.016,8.303,3.698,11.183
		C106.619,103.909,105.62,100.325,104.645,96.621z"/>
	<path fill="#FFFFFF" d="M101.264,87.848c0.539,0.479,1.075,0.92,1.616,1.329c-1.128-5.798-1.487-11.7,0.576-17.312l-0.614-1.339
		C100.094,76.006,100.149,82.072,101.264,87.848z"/>
	<path fill="#FFFFFF" d="M113.625,60.073c-2.337,1.032-4.195,2.666-4.195,2.666c-0.873,0.671-1.664,1.364-2.387,2.076
		c0.08,0.169,0.16,0.341,0.241,0.515C108.337,64.186,110.387,62.146,113.625,60.073z"/>
	<path fill="#231F20" d="M105.125,127.75c0.471-0.719,0.9-1.373,1.296-2.16c1.399-2.781,2.317-5.947,2.644-9.611
		c-0.402-0.068-0.816-0.113-1.244-0.187c-0.395,3.699-1.354,6.899-2.766,9.621c-0.008,0.017-0.017,0.038-0.025,0.053
		c-0.387,0.744-0.809,1.257-1.262,1.931C100.953,131.586,96.926,135,92.25,136h3.068C99.307,134,102.693,131.461,105.125,127.75z"/>
	<path fill="#231F20" d="M32.556,125.926c-6.811,2.182-6.945-1.996-6.945-1.996c-6.053-8.619-11.624-17.81-16.392-35.142
		C-2.182,43.16,23.426,11.137,56.275,0.554c0.594-0.191,1.19-0.376,1.789-0.554h-3.662C20.295,11.609-5.641,45.973,9.805,95.206
		c2.094,6.671,4.683,12.478,7.131,17.153c-0.216,0.935-0.492,2.58-0.026,4.6c0.807,3.031,1.478,4.891,3.919,10.271
		c-0.985,3.64,2.42,9,10.684,7.401c5.957-0.838,9.896-2.428,12.143-3.593c1.7-0.823,3.343-1.903,4.071-2.405
		c0.325,0.239,0.64,0.28,0.936,0.528c3.789,2.953,8.102,5.836,12.639,6.836h3.725c-5.674-1-10.956-4.066-15.117-7.314
		C43.63,123.784,39.061,123.843,32.556,125.926z M44.734,129.161c-0.245,0.139-0.504,0.278-0.771,0.418
		c-0.069,0.037-0.141,0.071-0.211,0.108c-0.206,0.104-0.417,0.211-0.635,0.315c-0.082,0.04-0.164,0.08-0.248,0.12
		c-0.227,0.105-0.459,0.215-0.696,0.32c-0.073,0.033-0.144,0.065-0.217,0.099c-0.625,0.276-1.284,0.546-1.971,0.808
		c-0.093,0.034-0.188,0.068-0.281,0.104c-0.247,0.091-0.495,0.181-0.748,0.271c-0.126,0.043-0.253,0.086-0.38,0.131
		c-0.229,0.076-0.46,0.151-0.693,0.227c-0.138,0.044-0.275,0.089-0.415,0.132c-0.249,0.076-0.5,0.15-0.753,0.222
		c-0.105,0.031-0.209,0.063-0.315,0.094c-0.016,0.006-0.033,0.009-0.048,0.014c-0.621,0.172-1.251,0.331-1.889,0.475
		c-0.014,0.004-0.027,0.008-0.042,0.01c-0.002,0-0.005,0.002-0.008,0.002c-1.348,0.301-2.723,0.529-4.086,0.658
		c-6.152,0.992-9.572-3.314-8.385-6.608c0,0,0,0-0.338-0.827c-0.325-0.792-4.231-8.792-3.807-12.268
		c3.447,6.307,6.446,10.181,7.116,10.75c0,0-0.434,3.789,4.999,2.972c-0.071,0.112-0.15,0.213-0.234,0.31
		c-0.02,0.023-0.039,0.045-0.059,0.067c-0.173,0.187-0.368,0.345-0.581,0.474c-0.021,0.014-0.043,0.026-0.065,0.038
		c-0.218,0.125-0.453,0.222-0.697,0.289c-0.022,0.007-0.044,0.013-0.066,0.019c-0.247,0.062-0.502,0.099-0.762,0.106
		c-0.026,0.001-0.051,0.003-0.077,0.003c-0.126,0.002-0.252-0.01-0.378-0.01c-0.002,0-0.005,0-0.008,0c-0.002,0-0.004,0-0.007,0
		c-0.001,0-0.002,0-0.003,0c-0.006,0-0.013-0.003-0.02-0.003c-0.008-0.001-0.016-0.004-0.024-0.004
		c-1.89-0.188-3.718-1.716-3.042-4.084c-0.833-1.032-2.846-4.3-2.846-4.3c-0.095,0.02,0.092,0.966,0.08,0.908
		c0.677,1.416,1.863,3.842,1.863,3.842c-0.057,0.355-0.077,0.689-0.068,1.007c0.003,0.088,0.025,0.166,0.034,0.25
		c0.019,0.218,0.037,0.438,0.086,0.637c0.022,0.091,0.064,0.164,0.092,0.249c0.057,0.178,0.112,0.355,0.192,0.516
		c0.041,0.084,0.098,0.152,0.146,0.229c0.088,0.144,0.171,0.289,0.276,0.416c0.063,0.078,0.141,0.14,0.209,0.21
		c0.105,0.105,0.207,0.221,0.324,0.312c0.093,0.074,0.197,0.129,0.296,0.196c0.107,0.071,0.21,0.146,0.324,0.207
		c0.128,0.069,0.266,0.119,0.403,0.175c0.093,0.039,0.182,0.082,0.277,0.114c0.171,0.056,0.349,0.093,0.526,0.13
		c0.064,0.014,0.126,0.034,0.19,0.045c0.215,0.035,0.433,0.053,0.65,0.06c0.026,0.002,0.051,0.006,0.076,0.008
		c1.243,0.021,2.474-0.421,3.21-1.306c0.003-0.004,0.007-0.008,0.01-0.012c0.066-0.08,0.127-0.166,0.185-0.252
		c0.009-0.014,0.018-0.027,0.027-0.041c0.051-0.08,0.097-0.164,0.141-0.25c0.01-0.02,0.02-0.037,0.029-0.057
		c0.042-0.088,0.079-0.18,0.113-0.271c0.006-0.018,0.014-0.035,0.02-0.053c0.038-0.111,0.07-0.229,0.096-0.349
		c0.247-0.054,0.492-0.106,0.76-0.179c0,0.002-0.001,0.002-0.001,0.006c-0.042,0.174-0.091,0.336-0.143,0.494
		c-0.017,0.054-0.036,0.104-0.054,0.153c-0.038,0.107-0.079,0.21-0.121,0.312c-0.021,0.05-0.042,0.1-0.064,0.146
		c-0.055,0.117-0.112,0.229-0.172,0.335c-0.02,0.034-0.039,0.068-0.059,0.101c-0.061,0.103-0.125,0.199-0.191,0.291
		c-0.031,0.043-0.063,0.082-0.096,0.123c-0.05,0.062-0.101,0.125-0.154,0.185c-0.036,0.04-0.071,0.08-0.107,0.118
		c-0.06,0.061-0.122,0.117-0.185,0.173c-0.232,0.205-0.479,0.375-0.74,0.508c-1.765,0.892-2.284,2.457,0.399,2.271
		c2.73-0.193,7.547-1.104,13.179-3.821c0,0,0.022-0.015,0.06-0.034c0.015-0.008,0.024-0.013,0.046-0.025
		c0.03-0.019,0.072-0.041,0.112-0.062c0.03-0.018,0.06-0.035,0.095-0.057c0.002,0,0.003-0.002,0.004-0.002
		c0.042-0.022,0.094-0.053,0.141-0.079c0.046-0.026,0.096-0.056,0.146-0.085c0.009-0.006,0.018-0.012,0.027-0.016
		c0.021-0.012,0.038-0.021,0.06-0.035c0.097-0.056,0.195-0.11,0.297-0.172c-2.332-1.449-4.761-1.813-6.477-1.774
		c-1.196,0.028-2.984,0.257-4.447,0.472c0.069-0.021,0.126-0.037,0.196-0.062c5.906-2.08,10.203-0.854,13.328,1.111
		C46.031,128.384,45.369,128.796,44.734,129.161z"/>
	<path fill="#231F20" d="M138.857,26.776c0.979,1.632,1.813,2.543,3.279,5.435l1.543,0.122C134.484,15.94,120.914,5.388,105.812,0
		h-3.523C116.299,4.325,129.225,13.054,138.857,26.776z"/>
	<path fill="#231F20" d="M104.948,75.116l-0.925-2.015l-0.567-1.24c-2.063,5.613-1.705,11.517-0.576,17.313
		c0.295,0.226,0.593,0.44,0.892,0.644c0.537,0.367,1.084,0.699,1.646,1.004c2.186,1.18,4.626,1.906,7.791,2.296L104.948,75.116z"/>
	<path fill="#FFFFFF" d="M33.36,126.809c-0.07,0.022-0.127,0.037-0.196,0.062c1.462-0.216,3.251-0.443,4.447-0.474
		c1.715-0.039,4.145,0.328,6.477,1.775c-0.103,0.062-0.201,0.118-0.297,0.174c-0.021,0.012-0.039,0.022-0.06,0.033
		c-0.009,0.005-0.018,0.012-0.027,0.016c-0.007,0.006-0.015,0.01-0.022,0.015c-0.046,0.024-0.082,0.047-0.124,0.069
		c-0.047,0.027-0.098,0.058-0.141,0.082c-0.001,0-0.002,0.002-0.004,0.002c-0.011,0.006-0.02,0.013-0.031,0.02
		c-0.026,0.016-0.042,0.021-0.063,0.036c-0.04,0.021-0.082,0.045-0.112,0.062c-0.022,0.012-0.032,0.02-0.046,0.025
		c-0.037,0.021-0.06,0.033-0.06,0.033c-5.632,2.718-10.448,3.629-13.179,3.822c-2.684,0.188-2.165-1.377-0.399-2.271
		c0.232-0.119,0.455-0.267,0.666-0.438c0.025-0.021,0.049-0.047,0.074-0.068c0.062-0.057,0.125-0.113,0.185-0.174
		c0.037-0.037,0.072-0.077,0.107-0.117c0.053-0.059,0.104-0.12,0.154-0.184c0.032-0.041,0.064-0.082,0.096-0.125
		c0.066-0.092,0.13-0.188,0.191-0.289c0.02-0.033,0.039-0.066,0.059-0.102c0.06-0.105,0.118-0.218,0.172-0.335
		c0.022-0.048,0.043-0.101,0.064-0.147c0.042-0.101,0.083-0.203,0.121-0.311c0.018-0.051,0.037-0.102,0.054-0.152
		c0.052-0.158,0.101-0.322,0.143-0.496c0-0.002,0.077-0.002,0.077-0.004c-0.268,0.07-0.684,0.125-0.684,0.178
		c0,0.002,0,0.002,0,0.002c0,0.119-0.134,0.234-0.172,0.347c-0.006,0.019-0.052,0.035-0.058,0.052
		c-0.034,0.094-0.09,0.186-0.132,0.272c-0.009,0.02-0.029,0.038-0.039,0.057c-0.043,0.086-0.095,0.169-0.146,0.25
		c-0.009,0.015-0.021,0.027-0.03,0.041c-0.058,0.087-0.12,0.171-0.186,0.251c-0.003,0.003-0.006-0.051-0.01-0.046
		c-0.734,0.886-1.958,1.247-3.205,1.247c-0.002,0-0.004,0-0.006,0c-0.025,0-0.05,0.053-0.076,0.05
		c-0.217-0.005-0.435,0.007-0.65-0.028c-0.064-0.012-0.126-0.019-0.19-0.029c-0.178-0.038-0.355-0.067-0.526-0.123
		c-0.096-0.032-0.185-0.073-0.277-0.11c-0.137-0.056-0.275-0.104-0.403-0.174c-0.114-0.062-0.217-0.134-0.324-0.206
		c-0.099-0.066-0.203-0.122-0.296-0.195c-0.117-0.094-0.219-0.207-0.324-0.312c-0.069-0.072-0.146-0.133-0.209-0.21
		c-0.105-0.127-0.188-0.272-0.276-0.416c-0.047-0.076-0.104-0.146-0.146-0.229c-0.08-0.158-0.136-0.336-0.192-0.515
		c-0.028-0.085-0.069-0.16-0.092-0.25c-0.049-0.199-0.067-0.42-0.086-0.638c-0.008-0.084-0.031-0.161-0.034-0.25
		c-0.009-0.315,0.011-0.649,0.068-1.006c0,0-1.186-2.428-1.863-3.842c0.012,0.059-0.174-0.89-0.08-0.908c0,0,2.013,3.268,2.846,4.3
		c-0.069,0.241-0.112,0.478-0.13,0.7c-0.007,0.067,0.003,0.129,0.001,0.195c-0.002,0.151-0.008,0.307,0.011,0.452
		c0.009,0.074,0.033,0.142,0.048,0.212c0.025,0.127,0.049,0.256,0.09,0.375c0.027,0.075,0.065,0.143,0.097,0.209
		c0.048,0.105,0.092,0.217,0.151,0.312c0.045,0.074,0.099,0.141,0.149,0.207c0.062,0.084,0.121,0.17,0.19,0.246
		c0.066,0.076,0.14,0.139,0.213,0.205c0.066,0.062,0.13,0.125,0.202,0.181c0.09,0.069,0.188,0.132,0.285,0.192
		c0.062,0.041,0.121,0.08,0.185,0.116c0.119,0.067,0.243,0.122,0.369,0.177c0.048,0.02,0.094,0.043,0.143,0.062
		c0.147,0.055,0.298,0.101,0.451,0.138c0.029,0.008,0.059,0.021,0.087,0.023c0.165,0.037,0.332,0.062,0.499,0.082
		c0.008,0,0.016,0.005,0.024,0.006c0.007,0,0.014,0.003,0.02,0.003c0.001,0,0.002,0,0.003,0c0.002,0,0.004,0,0.007,0
		s0.006,0,0.008,0c0.126,0,0.252,0.011,0.378,0.01c0.026,0,0.051-0.002,0.077-0.002c0.259-0.01,0.515-0.045,0.762-0.108
		c0.022-0.004,0.044-0.01,0.066-0.018c0.245-0.068,0.479-0.164,0.697-0.289c0.022-0.013,0.043-0.025,0.065-0.037
		c0.212-0.13,0.407-0.287,0.581-0.476c0.02-0.021,0.04-0.043,0.059-0.065c0.083-0.098,0.163-0.199,0.234-0.311
		c-5.432,0.816-4.999-2.973-4.999-2.973c-0.67-0.567-3.669-4.442-7.116-10.748c-0.424,3.475,3.482,11.475,3.807,12.267
		c0.338,0.827,0.338,0.827,0.338,0.827c-1.188,3.293,2.233,7.601,8.385,6.609c0.685-0.067,1.374-0.158,2.059-0.271
		c0.227-0.037,0.451-0.087,0.679-0.13c0.451-0.082,0.903-0.161,1.349-0.262c0.003,0,0.006-0.002,0.008-0.002
		c0.014-0.002,0.028-0.006,0.042-0.01c0.408-0.093,0.809-0.201,1.21-0.304c0.226-0.06,0.455-0.108,0.679-0.17
		c0.016-0.004,0.032-0.008,0.048-0.013c0.106-0.03,0.209-0.062,0.315-0.094c0.252-0.072,0.504-0.146,0.753-0.223
		c0.14-0.043,0.277-0.088,0.415-0.132c0.233-0.074,0.464-0.15,0.693-0.228c0.127-0.043,0.254-0.088,0.38-0.131
		c0.252-0.09,0.501-0.18,0.748-0.271c0.094-0.035,0.188-0.069,0.281-0.104c0.687-0.261,1.346-0.531,1.971-0.807
		c0.073-0.032,0.144-0.064,0.217-0.098c0.237-0.106,0.47-0.215,0.696-0.321c0.083-0.04,0.166-0.08,0.248-0.12
		c0.218-0.105,0.429-0.211,0.635-0.316c0.07-0.037,0.143-0.072,0.211-0.107c0.267-0.141,0.526-0.279,0.771-0.418
		c0.634-0.365,1.296-0.777,1.953-1.242C43.562,125.953,39.266,124.727,33.36,126.809z"/>
	<path fill="#231F20" d="M133.727,44.539c0.037-0.007,0.072-0.013,0.108-0.02c-0.177-0.414-0.558-1.326-1.03-2.601L133.727,44.539z"
		/>
	<path fill="#231F20" d="M138.348,51.881l5.157-0.069c2.646-0.453,3.854-1.571,4.194-3.056l-0.145-0.021
		c-0.617,2.684-3.596,2.888-4.326,2.984c-1.03,0.138-3.713,0.138-5.5,0c-1.213-0.093-1.791-1.164-2.041-1.846
		c-0.027,0.006-0.058,0.012-0.084,0.018C136.494,52.047,138.348,51.881,138.348,51.881z"/>
	<path fill="#231F20" d="M131.471,38.126l0.495,1.41c-0.254-0.765-0.515-1.591-0.771-2.466c-0.504-1.661-0.342-2.846,0.003-3.659
		C130.186,35.55,131.471,38.126,131.471,38.126z"/>
	<path fill="#231F20" d="M142.137,32.211l-0.359-0.028c0.472,0.845,0.631,1.587,0.631,1.587l4.062,9.459l0.098,0.005
		c-1.342-3.25-4.229-9.855-4.229-9.855l1.582,0.138c0.938,2.407,2.312,6.521,3.363,9.754l0.151,0.008
		c-0.504-1.547-3.258-9.995-3.258-9.995l-0.158-0.48l0.396-0.334l0.158-0.067l-0.895-0.071L142.137,32.211z"/>
	<path fill="#231F20" d="M130.854,45.076l-2.959-8.189c-1.17-2.773,0.139-3.805,0.139-3.805c-0.346,1.032-0.061,2.221,0.136,2.843
		c0.381,1.209,1.679,4.762,2.752,7.496c0.21,0.535,0.396,1.046,0.562,1.534c0.322-0.062,0.646-0.122,0.969-0.182
		c-0.916-2.753-2.174-5.99-2.562-7.06c-0.326-0.897-0.479-1.237-0.896-2.682c-0.562-1.957,0.207-1.995,1.032-2.063
		c0.518-0.042,1.273,0.056,1.357,0.067c0.369-0.647,0.824-0.978,0.985-1.081l-0.14,0.057c-1.711-0.062-2.474-0.103-2.815-0.126
		c-0.29-0.019-0.283-0.026-0.287-0.026c-1.112-0.005-2.017,0.409-2.483,1.136c-1.094,1.701,0.291,4.525,0.391,4.774
		c0,0,1.99,5.729,2.621,7.545C130.055,45.232,130.454,45.153,130.854,45.076z"/>
	<path fill="#FFFFFF" d="M132.184,50.583c0.217,3.521-1.57,4.857-4.634,5.492c-1.993,0.413-3.62,0.481-4.444,0.758l1.899,0.067
		c0.093,0.01,2.188-0.015,5.108-1.004c1.914-0.711,3.354-1.996,2.742-5.45C132.632,50.492,132.409,50.537,132.184,50.583z"/>
	<path fill="#FFFFFF" d="M128.168,35.924c-0.195-0.622-0.48-1.811-0.136-2.843c0,0-1.308,1.032-0.138,3.805l2.959,8.189
		c0.209-0.041,0.42-0.082,0.629-0.122c-0.166-0.488-0.354-0.999-0.562-1.534C129.846,40.687,128.549,37.133,128.168,35.924z"/>
	<path fill="#FFFFFF" d="M147.699,48.756c-0.34,1.484-1.551,2.603-4.194,3.056l-5.157,0.069c0,0-1.854,0.167-2.744-1.99
		c-0.584,0.117-1.172,0.235-1.766,0.355c0.52,3.281,0.036,6.453-6.333,7.067c1.087,0.749,10.998-1.083,16.968,0.281
		c0.09,0.049,2.687,0.911-0.203,2.174c5.543-1.233,5.84-6.771,4.782-10.871l-0.911-0.078L147.699,48.756z"/>
	<path fill="#FFFFFF" d="M143.919,33.518l-1.582-0.138c0,0,2.888,6.605,4.228,9.855l0.719,0.038
		C146.23,40.038,144.859,35.925,143.919,33.518z"/>
	<path fill="#FFFFFF" d="M131.966,39.536l-0.495-1.41c0,0-1.285-2.576-0.271-4.715c0.058-0.136,0.118-0.262,0.187-0.377
		c-0.084-0.011-0.842-0.109-1.357-0.067c-0.826,0.069-1.596,0.106-1.033,2.063c0.417,1.445,0.568,1.785,0.895,2.682
		c0.392,1.07,1.647,4.307,2.563,7.06c0.425-0.08,0.851-0.158,1.274-0.233l-0.922-2.621
		C132.546,41.223,132.262,40.422,131.966,39.536z"/>
	<path fill="#231F20" d="M131.012,50.828c0.391-0.082,0.782-0.164,1.172-0.244c0.227-0.046,0.448-0.091,0.672-0.137
		c0.328-0.067,0.656-0.134,0.981-0.2c0.593-0.12,1.181-0.238,1.767-0.355c0.028-0.006,0.058-0.012,0.084-0.018
		c-0.117-0.324-0.162-0.562-0.162-0.562c3.783-0.48,3.99-1.65,3.99-1.65c1.102-2.269-1.375-3.164-1.375-3.164
		c-1.17-0.48-4.195,0.276-4.195,0.276s-0.043-0.093-0.11-0.255c-0.036,0.006-0.071,0.013-0.108,0.02
		c-0.425,0.076-0.85,0.154-1.273,0.233c-0.323,0.06-0.646,0.121-0.969,0.182c-0.209,0.04-0.418,0.081-0.629,0.122
		c-0.399,0.078-0.799,0.157-1.199,0.237c-8.973,1.799-17.754,4.173-22.686,6.236c0,0-3.693,1.337-6.312,3.472
		c-0.099,0.08-0.144,0.147-0.152,0.207c0.277-0.081,0.558-0.124,0.826-0.12c0.694,0.011,1.246,0.321,1.556,0.875
		c0.057,0.113,0.69,1.456,1.729,3.663c1.693-1.091,3.426-2.204,5.604-2.988C116.594,54.066,123.962,52.302,131.012,50.828z
		 M104.229,58.514c0,0-0.824-1.691-1.047-2.233c-0.395-0.953-0.644-0.918-1.024-1.137c1.196-0.806,2.956-1.633,5.056-2.509
		c6.1-2.553,18.74-5.811,29.667-7.576c1.165-0.164,2.134,0.641,2.257,1.478c0.109,0.745-0.271,1.619-1.697,1.84l-0.67,0.134
		c-8.744,1.748-18.656,3.73-26.939,7.095C107.219,56.546,105.689,57.405,104.229,58.514z"/>
	<path fill="#231F20" d="M96.967,58c-1.042,1.191-1.946,2.25-3.11,3.845c-1.004,1.5-4.624,7.218-7.861,12.457
		c1.165-0.493,2.296-0.171,3.037,0.689c0.438,0.454,1.265,1.354,2.312,2.495c3.313-5.352,6.448-10.354,6.445-10.352
		c0.737-1.154,1.514-2.344,2.05-3.155l-0.465-1.013c-0.241,0.338-1.592,2.112-2.517,3.558L90.684,76.57l-1.646-1.811
		c0,0-0.868-0.742-1.627-0.675c3.338-5.413,6.312-10.087,7.348-11.631c0.947-1.562,2.906-3.809,3.155-4.079
		c0.05-0.508,0.173-1.034,0.45-1.498c0.056-0.094,0.123-0.183,0.188-0.271C98.181,56.898,97.336,57.578,96.967,58z"/>
	<path fill="#231F20" d="M98.046,60.11c0.067,0.134,0.161,0.325,0.267,0.542l-0.406-0.885c-0.019-0.39-0.042-0.879,0.006-1.386
		c-0.003,0.004-0.002,0.003-0.006,0.008C97.907,58.39,97.559,59.136,98.046,60.11z"/>
	<path fill="#231F20" d="M163.881,88.593l0.525-0.173c0.177-0.404,0.548-0.749,1.091-0.996c1.038-0.472,2.75-0.578,4.058,0.297
		l0.053,0.106c1.572-0.33,3.656-0.737,8.684-1.446c0.562,0.014,1.048,0.139,1.463,0.344c0.354-0.054,0.604-0.082,0.604-0.082
		c0.987,0.166,1.41,0.748,1.531,1.545c0.041,0.25,0.206,1.045-0.439,1.543c-0.051,0.555-0.264,1.068-0.651,1.439
		c0,0-0.065,0.027-0.22,0.078c0.816,1.98,2.012,5.738,2.345,7.109l0.78,3.194c0.47-0.108,0.932-0.225,1.383-0.348l0.061-0.021
		l0.062-0.006c0.06-0.004,0.116-0.002,0.174-0.004c-0.21-0.021-0.427-0.035-0.655-0.033c-1.285-5.775-3.095-10.246-3.095-10.246
		c2.338-1.72,1.488-4.379-0.093-4.857c0,0,2.89-0.621,4.22,4.378c4.835,13.548,8.597,32.117,7.519,38.535
		c0-0.823-1.283-2.359-3.483-2.819c0,0,0.045-0.849-0.021-1.878c-0.551-5.594-2.567-15.774-2.567-15.774
		c2.226-0.72,2.72-4.166,0.892-6.068c0.473,0.568,0.779,1.265,0.907,1.956c0.3,1.618-0.272,3.63-2.237,4.222
		c-0.05,0.014-0.271,0.07-0.613,0.157l0.128,0.69c0.834,4.502,2.096,11.31,2.573,15.479c0.023,0.408-0.006,0.745-0.064,1.026
		c1.648,0.336,4.068,1.199,4.551,3.406l0.008,0.039l0.004,0.043c0.006,0.101,0.434,1.977-1.412,3.047
		c2.988-1.57,2.834-6.295,2.822-6.519c-0.877-11.874-3.545-23.715-8.039-36.286l-0.549-1.309c-1.137-2.956-3.191-3.514-6.439-3.11
		l-2.815,0.308c-5.659,0.506-14.769,1.47-22.373,0.197l1.722,4.127C159.375,89.409,162.021,88.958,163.881,88.593z M175.507,86.657
		c-1.34,0.377-5.845,1.032-5.845,1.032c-0.624-0.514-1.24-0.603-1.439-0.616c-0.023-0.001-0.051-0.003-0.074-0.005
		c0,0,0.031,0,0.074,0.005C170.087,87.198,175.507,86.657,175.507,86.657z M165.398,87.346c-1.032,0.137-1.103,1.103-1.103,1.103
		c-2.478,0.616-8.046,1.235-8.046,1.235L155.083,87C161.064,87.826,165.398,87.346,165.398,87.346z"/>
	<path fill="#231F20" d="M180.798,91.171c0.39-0.371,0.601-0.886,0.651-1.44c-0.137,0.106-0.309,0.199-0.528,0.271
		c-0.596,0.322-1.666,0.562-1.666,0.562c-1.239,0.308-2.644,0.662-4.592,1.031c-1.396,0.264-2.794,0.561-2.681,0.488
		c-0.295-0.65-0.631-1.691-1.489-3.363c2.659-0.492,5.433-1.096,7.848-1.709c0.46-0.129,1.005-0.225,1.411-0.285
		c-0.415-0.203-0.902-0.33-1.463-0.344c-5.025,0.709-7.109,1.117-8.682,1.446l2.455,4.903c0.057,0.135,0.111,0.271,0.168,0.406
		c5.422-0.986,7.688-1.668,8.347-1.89C180.73,91.198,180.798,91.171,180.798,91.171z"/>
	<path fill="#231F20" d="M161.867,103.311l-3.322-7.961c-0.3,0.051-0.605,0.102-0.912,0.148c1.105,2.796,2.285,5.609,3.217,7.794
		C161.17,103.299,161.51,103.305,161.867,103.311z"/>
	<path fill="#231F20" d="M174.206,127.35c-0.026-0.386-0.058-0.811-0.092-1.264c-7.474-3.859-12.337-12.218-12.337-12.218
		c0.756-0.136,3.714-0.688,3.714-0.688c2.979,4.471,7.36,7.596,8.184,8.161c-0.048-0.438-0.1-0.879-0.153-1.321
		c-2.778-2.009-5.198-4.436-7.076-7.151c-1.856,0.371-3.84,0.735-5.904,1.093C164.09,119.852,168.958,124.514,174.206,127.35z"/>
	<path fill="#231F20" d="M156.71,103.044c-1.245-2.942-2.597-6.201-2.91-6.957c-0.374,0.056-0.75,0.108-1.129,0.164
		c1.004,2.373,1.947,4.603,2.78,6.572L156.71,103.044z"/>
	<path fill="#231F20" d="M193.348,129.432l-0.004-0.041l-0.007-0.041c-0.481-2.205-2.901-3.067-4.551-3.404
		c-0.796-0.161-1.413-0.2-1.544-0.209c-2.547-0.399-5.045-1.137-7.419-2.15c0.202,2.092,0.325,4.146,0.36,6.145
		c0.356,0.092,0.715,0.179,1.071,0.252c-0.328,0.061-0.683,0.121-1.063,0.182c0.015,1.324-0.01,2.618-0.078,3.875
		c-0.049,0.934-0.399,1.73-1.004,2.277c10.375-2.359,12.142-3.217,12.774-3.801c0.021-0.012,0.034-0.021,0.054-0.033
		C193.779,131.407,193.354,129.532,193.348,129.432z M188.323,132.919c-1.947,0.547-8.253,2.2-8.253,2.2
		c0.344-1.514,0.274-3.92,0.274-3.92c12.173-2.614,0.618-3.713,0.618-3.713c2.684,0.826,2.614,1.785,2.614,1.785
		c-1.169,0.068-3.232-0.549-3.232-0.549c0.069-0.757-0.138-3.852-0.138-3.852c3.163,1.375,3.67,0.98,6.947,1.72
		c3.369,0.757,1.719,2.132,1.719,2.132c-1.719,2.131-8.046,3.024-8.046,3.024c10.59-1.375,9.628-4.263,9.628-4.263
		C194.788,130.305,190.523,132.301,188.323,132.919z"/>
	<g>
		<path fill="none" d="M162.305,104.287l1.307,2.888l5.296-1.102c0,0,1.444,0.093,0.894-1.765
			C169.8,104.309,166.911,104.355,162.305,104.287z"/>
		<path fill="none" d="M137.775,100.664c0,0,0.088,1.65-0.094,3.575l19.737,3.28c0,0-1.103-2.545-1.442-3.533L137.775,100.664z"/>
		<path fill="#231F20" d="M170.051,104.656c-0.006-0.016-0.189-0.577-0.475-1.436c-2.924,0.115-5.608,0.121-7.709,0.09
			c-0.356-0.004-0.696-0.013-1.018-0.02c1.024,2.402,1.752,4.044,1.752,4.044c-0.617,0.272-3.713,0.688-3.713,0.688
			c-0.281-0.534-1.195-2.657-2.18-4.979l-1.259-0.221l-17.828-3.128c-0.042-0.52-0.093-1.038-0.151-1.559
			c-0.847,0.09-1.682,0.176-2.508,0.26c0.532,4.457,0.368,9.061-0.898,13.199c0.886-0.087,1.765-0.175,2.636-0.267
			c0.528-1.955,0.853-4.019,0.985-6.153l19.366,3.27c3.431-0.586,6.794-1.19,10.121-1.791l2.416-0.434
			C170.137,106.021,170.298,105.402,170.051,104.656z M137.684,104.239c0.183-1.925,0.092-3.575,0.092-3.575l18.201,3.322
			c0.344,0.988,1.444,3.533,1.444,3.533L137.684,104.239z M168.906,106.073l-5.295,1.102l-1.307-2.888
			c4.605,0.068,7.494,0.021,7.494,0.021C170.352,106.166,168.906,106.073,168.906,106.073z"/>
	</g>
	<path fill="#231F20" d="M186.761,108.589c1.966-0.592,2.538-2.604,2.238-4.222c-0.128-0.69-0.437-1.387-0.908-1.956
		c-0.624-0.647-1.521-1.115-2.711-1.233c-0.06,0.002-0.114,0-0.174,0.004l-0.062,0.006l-0.061,0.021
		c-0.451,0.123-0.913,0.237-1.383,0.349c-2.512,0.586-5.271,0.987-8.036,1.258c0.762,2.547,1.456,5.201,2.062,7.896
		c2.385-0.442,6.799-1.549,8.422-1.962C186.491,108.659,186.712,108.604,186.761,108.589z M176.883,106.166
		c0,0,6.167-1.284,8.573-2.18c0,0-0.045-0.801-1.237-0.777c0,0-6.259,1.582-7.703,1.721l-0.344-0.964c0,0,5.363-1.032,7.152-1.442
		c0,0,3.781-1.31,4.607,1.582c0,0,0.823,2.496-1.308,3.392c0,0-1.582,0.803-8.872,2.11
		C177.755,109.605,177.158,107.336,176.883,106.166z"/>
	<path fill="#231F20" d="M126.77,119.602c1.168-1.582,3.48-1.509,3.48-1.509c7.438,15.913,26.413,18.747,42.834,14.548
		c0,0,1.141-0.199,1.713,0.62c0.48-0.964,0.514-4.112,0.514-4.112c-0.021-0.461-0.215-10.071-2.021-16.594
		c-0.021-0.226-0.428-1.379-1.107-1.589c0,0-0.299-1.896-0.341-1.545c-0.19,1.57-2.171,1.681-2.171,1.681
		c-10.126,2.412-25.793,4.404-38.16,5.654c-0.021,0.005-0.965,0.148-2.642,0.221l-1.332,0.039c-2.353,0.023-6.083,0.017-9.865-0.787
		c0,0-43.649-7.153-43.667-7.16c-0.665-0.223-0.86-1.036-0.86-1.036c-0.212-0.625-0.111-1.408,0.048-2.003l-1.898,2.808
		c-0.179,0.274-0.405,0.501-0.662,0.687c2.458,0.416,19.628,3.322,32.283,5.465c0.538,0.092,1.063,0.182,1.586,0.27
		c0.875,0.148,1.724,0.292,2.536,0.43c0.265,0.045,0.525,0.09,0.783,0.133c0.428,0.072,0.841,0.143,1.244,0.212
		c4.543,0.77,7.604,1.286,7.604,1.286c1.595,0.384,6.173,0.865,7.994,0.975c0.075,0.007,0.146,0.012,0.219,0.018l0.25,0.353
		c0.445,1.13,0.95,2.221,1.509,3.271c0.379,0.713,0.786,1.207,1.217,1.881c3.568,5.601,8.865,10.19,15.541,12.19h3.524
		C139.752,134,131.438,129.938,126.77,119.602z M134.038,117.6c8.226-0.882,18.049-2.183,26.5-3.641
		c2.065-0.355,4.048-0.723,5.905-1.093c1.72-0.345,3.334-0.692,4.804-1.042c0.369-0.1,0.521,0.007,0.569,0.042
		c0.271,0.19,0.371,0.688,0.384,0.849l0.005,0.055l0.016,0.056c0.555,1.964,0.979,4.594,1.299,7.194
		c0.057,0.441,0.106,0.883,0.154,1.32c0.088,0.061,0.137,0.092,0.137,0.092c0.14,1.24,0.347,4.676,0.347,4.676
		c-0.017-0.006-0.029-0.016-0.043-0.021c0.034,0.453,0.063,0.878,0.092,1.266c0.101,1.438,0.144,2.359,0.146,2.385
		c-0.006,1.193-0.675,1.625-0.771,1.685c-15.297,4.146-33.126,1.996-41.161-11.528c-0.226-0.381-0.446-0.767-0.657-1.164
		l-0.714-0.69c0.591-0.119,0.913-0.222,0.913-0.222C132.639,117.747,133.333,117.674,134.038,117.6z"/>
	<g>
		<path fill="none" d="M104.645,96.621c-0.391-0.168-0.781-0.348-1.172-0.54c1.442,4.405,3.016,8.303,3.698,11.183
			C106.619,103.909,105.62,100.325,104.645,96.621z"/>
		<path fill="none" d="M145.994,82.674c0.304,0.266,0.771,0.545,1.273,0.803c-4.053-9.58-7.764-18.354-8.432-19.933
			c-0.062,0.085-0.122,0.167-0.188,0.259c-1.787,2.233-2.898,5.092-3.539,8.137C139.08,77.671,143.961,81.421,145.994,82.674z"/>
		<path fill="none" d="M119.887,111.968c0.762,0.113,1.455,0.202,2.094,0.272l-5.662-12.342c-1.403,3.539-3.896,7.271-7.086,9.574
			c0.013,0.223,0.022,0.444,0.031,0.672C115.434,111.204,119.887,111.968,119.887,111.968z"/>
		<path fill="none" d="M127.27,112.052l-5.595-12.632c0,0-2.407-0.436-3.623,1.491c3.589,7.845,4.404,9.78,5.091,11.278
			C125.755,112.396,127.27,112.052,127.27,112.052z"/>
		<path fill="none" d="M128.488,112.061c1.894-0.136,3.75-0.293,5.574-0.465c0.887-0.086,1.766-0.174,2.637-0.266
			c7.191-0.762,13.894-1.785,20.353-2.885c3.429-0.586,6.792-1.19,10.121-1.791l2.416-0.434c0.548-0.197,0.709-0.818,0.462-1.563
			c-0.006-0.015-0.189-0.577-0.475-1.437c-0.735-2.218-2.146-6.422-2.922-8.378l-0.012-0.026l-0.009-0.025
			c0-0.003-0.024-0.247-0.481-0.587c-0.274-0.207-1.109-0.063-1.109-0.063c-1.867,0.402-4.074,0.812-6.499,1.211
			c-0.3,0.049-0.604,0.101-0.912,0.147c-0.017-0.044-0.034-0.087-0.052-0.13c0,0-3.204,0.47-3.852,0.551
			c0,0,0.025,0.062,0.069,0.168c-0.374,0.055-0.75,0.109-1.129,0.164c-4.875,0.698-10.175,1.348-15.2,1.885
			c-0.847,0.09-1.682,0.178-2.508,0.26c-4.236,0.43-8.186,0.766-11.386,0.963c-0.013,0-0.239-0.004-0.623-0.018
			c2.412,5.42,4.353,10.016,5.481,12.743C128.469,112.068,128.484,112.061,128.488,112.061z"/>
		<path fill="none" d="M113.625,60.073c-2.337,1.032-4.195,2.666-4.195,2.666c-0.873,0.671-1.664,1.364-2.387,2.076
			c0.08,0.169,0.16,0.341,0.241,0.515C108.337,64.186,110.387,62.146,113.625,60.073z"/>
		<path fill="none" d="M136.995,63.41c-5.763,0.698-7.367,15.129-4.104,18.73C131.698,76.616,132.96,66.346,136.995,63.41z"/>
		<path fill="none" d="M101.316,56.161c-0.621-0.008-1.541,0.451-2.007,1.234c-0.354,0.595-0.633,1.279-0.285,2.105
			c0.012,0.023,8.583,17.977,15.726,33.593c1.811,0.38,4.334,0.253,4.334,0.253l-17.182-36.915
			C101.884,56.396,101.757,56.169,101.316,56.161z"/>
		<path fill="none" d="M139.62,62.548l11.911,27.892c0,0,2.027-0.224,3.712-0.527c0,0-11.479-27.223-12.259-28.805
			C142.984,61.106,140.904,61.153,139.62,62.548z"/>
		<path fill="none" d="M134.402,79.667c0.027,3.528,0.475,6.827,1.05,9.226c0.375,1.182,0.706,2.363,0.991,3.545
			c4.67-0.479,9.488-1.078,13.879-1.685C144.439,88.802,138.668,84.924,134.402,79.667z"/>
		<path fill="none" d="M116.857,85.943c1.17,2.546,2.334,5.084,3.453,7.543c0.342,0,0.545-0.002,0.554-0.002
			c3.579-0.024,8.161-0.332,13.036-0.793c-0.58-2.297-1.312-4.471-2.133-6.42C127.785,76.861,117.262,80.443,116.857,85.943z"/>
		<path fill="none" d="M149.773,89.402c0.004,0.002,0.009,0.002,0.013,0.005l-1.856-4.538c0,0-0.031-0.014-0.09-0.04
			c-0.82-0.377-7.207-3.485-13.011-11.479c0,0-0.402,1.926-0.448,4.609C134.381,77.958,140.771,86.443,149.773,89.402z"/>
		<path fill="#231F20" d="M180.182,129.729c-0.037-1.994-0.158-4.051-0.361-6.143c-0.408-4.234-1.139-8.607-2.094-12.877
			c-0.604-2.695-1.297-5.35-2.061-7.896c-1.039-3.474-2.203-6.75-3.436-9.674c-0.058-0.136-0.111-0.271-0.168-0.406l-2.455-4.903
			l-0.053-0.104c-1.311-0.877-3.021-0.771-4.06-0.299c-0.542,0.247-0.914,0.594-1.093,0.996l-0.523,0.174
			c-1.857,0.364-4.505,0.815-7.615,1.295l-1.723-4.127l-10.375-24.861c0.036-0.004,0.07-0.008,0.093-0.012
			c2.813-0.506,4.564-2.04,5.642-3.989c0.697-1.262,0.871-2.958,0.883-4.384c-0.057-0.099,0.988-0.499,1.326-0.681
			c-1.017-0.442-1.945-1.316-2.805-2.916l-0.254-0.021c1.059,4.1,0.762,9.638-4.781,10.871c2.889-1.263,0.293-2.125,0.203-2.174
			c-5.971-1.364-15.882,0.467-16.969-0.281c6.369-0.614,6.854-3.786,6.333-7.067c-0.325,0.066-0.653,0.133-0.981,0.2
			c0.611,3.454-0.828,4.738-2.742,5.45c-2.918,0.99-5.016,1.014-5.108,1.004l-1.899-0.067c0.826-0.276,2.451-0.345,4.444-0.758
			c3.063-0.634,4.851-1.971,4.634-5.492c-0.39,0.081-0.781,0.162-1.172,0.244c0.047,1.025-0.099,1.867-0.449,2.506
			c-0.614,1.119-2.762,1.562-3.883,1.732c0,0-1.676,0.231-1.647,0.229c-5.646,0.843-9.173,2.064-13.343,4.314
			c0,0-1.137,0.698-1.317,0.858c-1.133,0.72-2.521,1.733-3.924,3.073c-0.695-1.482-1.312-2.796-1.829-3.894
			c-1.038-2.208-1.674-3.55-1.73-3.663c-0.308-0.553-0.857-0.864-1.554-0.875c-0.271-0.004-0.549,0.039-0.826,0.12
			c-0.747,0.219-1.471,0.726-1.955,1.379c-0.065,0.089-0.132,0.178-0.188,0.271c-0.276,0.464-0.4,0.99-0.45,1.498
			c0.032-0.036,0.031-0.032,0,0.006c-0.049,0.507-0.025,0.996-0.006,1.386l0.406,0.885c0.436,0.894,1.093,2.264,1.093,2.264
			c0.017-0.017,0.004,0.002-0.031,0.052l0.465,1.013l2.321,5.058l0.682,1.483l0.613,1.34l0.566,1.238l0.926,2.016l8.26,18.003
			c-3.165-0.392-5.605-1.117-7.791-2.296c-0.562-0.305-1.107-0.639-1.646-1.003c-0.299-0.203-0.596-0.421-0.892-0.644
			c-0.541-0.41-1.077-0.85-1.616-1.33l0,0c-0.453-0.424-0.946-0.9-1.462-1.416c-2.708-2.688-6.129-6.412-8.456-8.944
			c-1.047-1.142-1.875-2.04-2.312-2.495c-0.74-0.86-1.872-1.184-3.037-0.688c-0.28,0.117-0.562,0.282-0.841,0.5
			c-0.858,0.67-1.416,1.838-1.206,3.045c0.08-0.129,0.156-0.254,0.238-0.388c0,0-0.033,0.735,1.204,2.043
			c1.239,1.308,2.909,2.968,2.909,2.968c-0.079,0.129-0.155,0.25-0.231,0.375c3.258,3.254,7.01,6.824,7.045,6.855
			c2.225,2.414,4.493,4.193,6.755,5.516c1.531,5.045,3.259,9.18,3.684,11.121c0.207,0.95,0.471,2.062,0.719,3.29
			c-0.76-0.13-1.537-0.263-2.328-0.397c-0.379-0.065-0.762-0.131-1.146-0.197c-10.823-1.857-23.63-4.055-28.347-4.865l-0.679,1.004
			c3.08,0.528,44.286,7.605,44.292,7.605c6.771,1.012,10.47,0.388,10.552,0.371c14.444-1.032,26.803-3.258,38.755-5.414l2.471-0.445
			c0,0,0.038-0.005,0.039-0.005l0.036-0.015c0.896-0.139,1.517,0.771,1.517,0.771c0.35-0.584-0.478-3.954-0.478-3.954
			c-0.024-0.071-2.194-6.924-3.276-9.653l0.02,0.053c-0.029-0.106-0.594-1.324-1.635-1.531c0,0,0.141-0.868-0.135-1.417
			c0,0-0.14,1.312-1.375,1.584c-10.975,2.203-29.334,4.464-40.529,5.136c-0.045,0.002-4.791-0.035-8.392-0.281
			c-6.081-0.342-13.018-1.763-19.732-9.045c-0.074-0.071-7.508-7.146-10.497-10.422c-0.747-1.053-0.349-2.227,0.435-2.844
			c0.555-0.436,1.788-0.845,2.406-0.128c1.308,1.754,8.389,9.194,12.032,13.003c4.121,3.208,7.542,4.809,13.285,5.533
			c2.924,0.369,7.146,0.417,7.332,0.414c13.305-0.172,34.16-3.297,42.756-4.825c1.029-0.138,1.99,0.81,1.99,0.81l-0.289-1.207
			l0.045-0.346c0.014-0.119,0.48-0.492,0.871-0.667c0.746-0.339,1.742-0.347,2.572,0.332c5.787,10.661,11.09,30.798,10.178,45.408
			c-0.051,0.796-0.391,1.437-0.998,1.752c0,0-1.636,1.185-2.941-0.881c0,0,0.328,0.698-1.116,1.179
			c-0.21,0.055-0.422-0.047-0.633-0.047h5.681c0.035,0,0.071,0.145,0.104,0.113c0.604-0.545,0.954-1.242,1.006-2.176
			c0.067-1.256,0.091-2.5,0.076-3.824C180.188,129.969,180.184,129.873,180.182,129.729z M123.577,99.359
			c3.202-0.2,7.147-0.535,11.386-0.963c0.826-0.084,1.661-0.17,2.506-0.262c5.026-0.535,10.326-1.187,15.202-1.885
			c0.379-0.057,0.755-0.107,1.129-0.164c-0.044-0.105-0.069-0.168-0.069-0.168c0.646-0.082,3.852-0.551,3.852-0.551
			c0.018,0.043,0.035,0.086,0.052,0.13c0.308-0.049,0.612-0.101,0.912-0.147c2.427-0.4,4.632-0.81,6.499-1.209
			c0,0,0.835-0.146,1.109,0.062c0.455,0.34,0.481,0.584,0.481,0.587l0.009,0.025l0.01,0.026c0.777,1.957,2.188,6.161,2.924,8.378
			c0.283,0.858,0.469,1.42,0.475,1.436c0.247,0.746,0.086,1.367-0.462,1.562l-2.416,0.436c-3.329,0.601-6.69,1.205-10.12,1.789
			c-6.459,1.102-13.16,2.123-20.354,2.887c-0.871,0.092-1.75,0.18-2.637,0.265c-1.826,0.175-3.682,0.33-5.576,0.466
			c-0.002,0.002-0.018,0.01-0.051,0.023c-1.133-2.729-3.069-7.323-5.481-12.743C123.338,99.354,123.564,99.359,123.577,99.359z
			 M121.674,99.42l5.594,12.632c0,0-1.513,0.345-4.127,0.138c-0.686-1.5-1.502-3.435-5.09-11.277
			C119.268,98.984,121.674,99.42,121.674,99.42z M116.318,99.898l5.662,12.342c-0.64-0.071-1.332-0.159-2.094-0.272
			c0,0-4.453-0.764-10.623-1.823c-0.01-0.227-0.021-0.449-0.031-0.672C112.422,107.17,114.914,103.438,116.318,99.898z
			 M104.645,96.621c0.978,3.704,1.977,7.289,2.526,10.643c-0.683-2.879-2.256-6.777-3.698-11.183
			C103.863,96.271,104.254,96.453,104.645,96.621z M138.837,63.544c0.668,1.579,4.379,10.354,8.431,19.933
			c-0.5-0.258-0.97-0.537-1.272-0.803c-2.033-1.253-6.915-5.003-10.881-10.734c0.638-3.045,1.751-5.901,3.536-8.137
			C138.715,63.711,138.775,63.629,138.837,63.544z M136.995,63.41c-4.035,2.936-5.297,13.206-4.104,18.73
			C129.628,78.539,131.232,64.108,136.995,63.41z M109.43,62.739c0,0,1.857-1.634,4.195-2.666c-3.238,2.073-5.288,4.113-6.341,5.256
			c-0.082-0.174-0.162-0.345-0.241-0.515C107.768,64.103,108.559,63.41,109.43,62.739z M114.75,93.093
			c-7.143-15.616-15.714-33.57-15.726-33.593c-0.348-0.826-0.069-1.51,0.285-2.105c0.468-0.783,1.386-1.242,2.007-1.234
			c0.439,0.008,0.566,0.235,0.586,0.27l17.182,36.915C119.084,93.346,116.561,93.473,114.75,93.093z M120.863,93.482
			c-0.008,0-0.211,0.002-0.553,0.002c-1.119-2.457-2.283-4.995-3.453-7.541c0.403-5.502,10.928-9.082,14.908,0.326
			c0.821,1.948,1.555,4.125,2.135,6.42C129.025,93.15,124.443,93.459,120.863,93.482z M134.829,73.35
			c5.804,7.994,12.19,11.104,13.011,11.479c0.059,0.026,0.09,0.04,0.09,0.04l1.856,4.538c-0.004-0.001-0.009-0.003-0.013-0.005
			c-9.002-2.959-15.395-11.444-15.395-11.444C134.427,75.275,134.829,73.35,134.829,73.35z M136.443,92.438
			c-0.286-1.183-0.617-2.364-0.992-3.545c-0.575-2.397-1.023-5.697-1.051-9.226c4.267,5.257,10.039,9.135,15.92,11.086
			C145.932,91.359,141.111,91.958,136.443,92.438z M151.529,90.439L139.62,62.548c1.284-1.395,3.364-1.441,3.364-1.441
			c0.779,1.582,12.259,28.805,12.259,28.805C153.557,90.216,151.529,90.439,151.529,90.439z"/>
	</g>
	<path fill="#231F20" d="M74.683,99.041c-0.068-0.04-0.132-0.079-0.197-0.118c0.781,0.531,1.524,0.979,1.524,0.979
		c-1.215,1.796-5.56,8.25-5.564,8.258c-0.403,0.617-1.038,0.711-1.498,0.68c-0.885-0.059-1.796-0.621-2.122-1.307
		c-0.199-0.418-0.152-0.838,0.143-1.256l5.778-8.815c0.113,0.218,0.473,0.536,0.916,0.873c-0.811-0.69-1.206-1.435-1.353-2.136
		l-0.244,0.475c0,0-6.079,9.061-6.071,9.047c-0.521,0.735-0.604,1.569-0.232,2.354c0.499,1.05,1.749,1.844,3.042,1.932
		c0.695,0.048,1.325-0.128,1.827-0.485c0.257-0.183,0.483-0.41,0.662-0.685l1.898-2.808c0.147-0.551,0.345-0.942,0.39-0.887
		c0,0,0.069,0.012,0.189,0.031l0.679-1.004l2.55-3.773C76.098,99.857,75.289,99.383,74.683,99.041z"/>
	<path fill="#231F20" d="M83.679,101.441c0,0,0.12,0.354,0.385,0.846l0.005-0.01c0.231,0.427,0.614,0.826,1.05,1.086
		c3.191,1.896,4.948-0.518,4.964-0.541c0.013-0.018,1.466-1.914-0.654-3.992c-0.058-0.053-1.35-1.286-3.113-1.066
		C86.133,97.04,85.209,95,82.566,95h-0.017l-0.019,0.083c-2.118,0.146-2.611,1.333-2.853,1.987c0,0-0.542,1.472,0.256,2.722
		C79.945,99.816,80.975,101.861,83.679,101.441z M86.466,98.389c2.386-0.072,4.248,2.31,3.052,4.055l-0.432,0.07
		c-2.078,0.271-3.246-0.553-3.595-2.398C85.815,99.876,86.344,99.236,86.466,98.389z M83.691,95.846
		c1.181,0.375,2.041,1.409,1.979,2.479l0.138,0.016c-0.096,0.771-0.914,1.822-2.577,1.566c-0.089-0.334-0.098-0.673-0.117-1.043
		c0.273,0.094,0.578,0.146,0.905,0.133c-0.011-0.155,0.033-0.481,0.033-0.481c-0.333-0.024-0.625-0.137-0.946-0.273
		C83.135,97.337,83.326,96.52,83.691,95.846z M80.933,96.354c0.536-0.442,0.961-0.646,1.757-0.604
		c-0.34,0.524-0.467,1.31-0.514,2.11c-0.166-0.131-0.293-0.144-0.455-0.316l-0.002,0.578c0.104,0.181,0.268,0.238,0.479,0.383
		c0.008,0.504,0.029,0.887,0.124,1.227c-0.108-0.039-0.17-0.129-0.284-0.184C80.383,98.613,80.933,96.354,80.933,96.354z
		 M80.325,97.082c-0.274,3.439,2.865,3.939,4.625,3.289c0.387,2.783,2.806,2.857,3.978,2.669c-1.466,0.929-4.292,0.306-4.812-2.312
		C81.896,101.404,79.385,99.616,80.325,97.082z"/>
	<path fill="#231F20" d="M73.663,98.334c0.257,0.195,0.542,0.396,0.823,0.588c0.065,0.039,0.128,0.079,0.197,0.118
		c0.606,0.342,1.415,0.817,2.318,1.356c3.573,2.133,8.639,5.276,8.639,5.276c3.494,2.22,6.186-0.969,7.037-2.103
		c0.661-0.881,2.691-3.611,2.621-5.949c-0.069-2.273-1.811-3.49-3.371-4.518l-7.259-4.76c-0.095,0.154-0.183,0.297-0.263,0.426
		l-0.979-0.514l-0.608,0.965c-0.593,0.469-1.846-0.014-2.627-0.768c-0.178-0.172-1.038-1.057-0.52-1.672l0.026-0.031l0.021-0.035
		c0.015-0.023,0.07-0.117,0.185-0.306l-0.962-0.505c0.05-0.079,0.115-0.184,0.189-0.299c-1.449,0.107-2.18,1.246-2.25,1.388
		c-0.639,1.274-3.401,5.81-3.896,6.303c-0.295,0.294-0.963,1.513-0.673,2.897C72.457,96.898,72.852,97.645,73.663,98.334z
		 M84.352,89.352c2.789,1.795,6.459,4.2,8.045,5.402c2.842,2.155,1.306,4.745,1.306,4.745c0.286-1.558-0.418-3.113-2.235-4.333
		c-1.587-1.064-7.772-5.184-7.772-5.184L84.352,89.352z M78.279,87.117c-0.12,2.083,3.08,3.76,4.592,3.346l8.099,5.422
		c1.215,0.871,2.412,2.364,1.702,4.383c-0.102-1.89-2.454-3.382-2.454-3.382s-8.705-5.125-11.373-6.794
		C77.321,89.136,77.472,87.809,78.279,87.117z M74.227,93.579c1.603-2.256,2.384-3.546,2.73-4.144
		c0.343,0.756,1.409,1.375,1.409,1.375c2.692,1.686,8.354,5.11,9.984,6.02c1.754,0.975,2.104,1.439,2.104,1.439
		c2.033,1.929,1.65,3.848,0.657,5.183c-1.124,1.513-3.283,2.473-5.083,1.272l-2.445-1.498l0.004-0.011l-0.884-0.528l-7.587-4.655
		c0,0-0.021-0.013-0.023-0.017l-0.023-0.011c-0.012-0.005-1.264-0.587-1.581-1.755C73.276,95.466,73.526,94.566,74.227,93.579z"/>
	<path fill="#231F20" d="M78.939,85.909l0.962,0.504c0.417-0.69,1.622-2.668,4.482-7.306c1.1,1.513,2.862,3.102,2.862,3.102
		l-3.821,6.05l0.979,0.513c0.08-0.127,0.167-0.271,0.263-0.424c0.671-1.086,1.75-2.832,3.402-5.502
		c0.077-0.123,0.152-0.246,0.231-0.373c0,0-1.669-1.662-2.909-2.968c-1.237-1.308-1.204-2.043-1.204-2.043
		c-0.082,0.132-0.158,0.257-0.238,0.386c-2.63,4.264-4.179,6.739-4.821,7.762C79.055,85.727,78.99,85.829,78.939,85.909z"/>
	<path fill="#231F20" d="M144.02,32.805l0.156,0.48c0,0,2.754,8.448,3.26,9.995l0.239,0.013c2.607,0.245,6.031,0.745,7.249,1.146
		c1.346,0.242,2.057,1.716,1.943,2.975c-0.041,0.459-0.182,0.945-0.465,1.357c1.293-1.349,0.793-4.01-1.066-4.549
		c-1.652-0.479-2.613-0.482-3.027-0.551l-4.951-11.141l2.891-1.238l7.083,12.997c4.044,6.417-3.453,8.739-6.327,4.815
		c0,0,0.464-0.027,1.204,0.073c-0.606-0.13-1.431-0.232-2.506-0.226l-0.396-0.034c0.859,1.6,1.791,2.474,2.807,2.916
		c0.896,0.39,1.861,0.451,2.906,0.381c2.103-0.141,3.795-1.373,4.528-3.353c0.027-0.08,0.653-1.993-1.057-4.849l-7.8-14.19
		l-0.422,0.169l-5.695,2.41l-0.158,0.067L144.02,32.805z M146.462,32.875l4.677,10.728c-0.687-0.136-2.476-0.342-2.476-0.342
		l-3.509-9.835L146.462,32.875z"/>
	<path fill="#231F20" d="M147.555,48.734l0.146,0.021l0.441,0.064l0.91,0.078l0.252,0.021l0.396,0.034
		c1.076-0.006,1.898,0.096,2.506,0.226c0.434,0.059,0.962,0.162,1.547,0.339c1.229,0.164,2.1-0.174,2.648-0.747
		c0.283-0.412,0.425-0.898,0.465-1.357c0.113-1.259-0.598-2.733-1.943-2.975c-1.217-0.402-4.641-0.901-7.249-1.146l-0.239-0.013
		l-0.152-0.008l-0.719-0.038l-0.097-0.005l0.339,0.789C147.667,46.118,147.809,47.634,147.555,48.734z M154.736,45.285l0.048,0.016
		l0.049,0.007c0.719,0.104,1.146,1.035,1.076,1.805c-0.037,0.417-0.287,1.359-1.712,1.357c-0.944-0.284-4.043-0.739-6.383-0.769
		c0-1.444-0.89-3.505-0.89-3.505C148.836,44.381,153.723,44.943,154.736,45.285z"/>
	<path fill="#231F20" d="M131.384,33.034c-0.065,0.115-0.127,0.242-0.186,0.377c-0.347,0.813-0.509,1.998-0.003,3.659
		c0.256,0.875,0.517,1.701,0.771,2.466c0.295,0.886,0.58,1.687,0.839,2.382c0.475,1.275,0.854,2.188,1.03,2.601
		c0.069,0.162,0.11,0.255,0.11,0.255s3.027-0.756,4.195-0.276c0,0,2.477,0.895,1.375,3.164c0,0-0.205,1.17-3.988,1.65
		c0,0,0.043,0.237,0.162,0.562c0.248,0.682,0.828,1.753,2.039,1.846c1.787,0.138,4.471,0.138,5.502,0
		c0.729-0.097,3.707-0.301,4.324-2.984c0.254-1.101,0.111-2.616-0.748-4.717l-0.34-0.789l-4.062-9.459c0,0-0.158-0.742-0.631-1.587
		c-0.646-1.164-1.885-2.521-4.115-2.403c0,0-0.977,0.242-1.787,0.483l-0.15,0.073l-3.287,1.577c0,0-0.027,0.016-0.064,0.04
		C132.208,32.056,131.753,32.387,131.384,33.034z M136.516,49.793c6.603-0.551,3.599-6.785,0.158-5.892
		c-1.306-3.232-2.338-6.464-2.338-6.464s-1.375-3.438-0.343-4.746l1.435-0.752c0.006-0.005,0.01-0.005,0.01-0.005l-0.01,0.005
		c-0.016,0.014-0.045,0.064-0.056,0.26c-0.026,0.437,0.039,1.231,0.547,2.417c0.825,1.927,4.233,9.788,4.677,10.936
		C142.795,51.261,137.109,52.316,136.516,49.793z M140.825,50.917c0,0,1.098-0.78,1.167-1.674c0,0,2.752,0,4.218,0.024
		C146.21,49.267,145.407,51.238,140.825,50.917z M141.564,34.252c0.543,1.272,3.225,7.376,4.004,9.351
		c1.031,2.614,1.123,3.783,1.123,3.783l-4.578,0.001c0-0.48-0.618-2.269-0.618-2.269l-2.685-6.266l-0.052-0.137l-1.612-3.92
		l-0.004,0.001l-0.418-1.028c-0.14-0.309-0.188-0.572-0.188-0.572c-0.516-2.4,1.562-2.598,2.413-2.247
		C140.12,31.433,140.945,32.808,141.564,34.252z M132.982,33.15c-0.619,2.064,0.39,4.356,0.39,4.356l2.362,6.58l-1.238,0.228
		c0,0-1.532-4.228-2.499-7.152c-0.733-2.224-0.069-3.508-0.069-3.508L132.982,33.15z"/>
	<path fill="#231F20" d="M137.986,31.846c0,0-1.188,0.448-0.618,2.512c0,0,0.099-0.357,0.178,0.643h-0.002
		c0.304,0,0.656,1.198,1.613,2.039c0,0-0.048,0.739,0.188,1.742l0.034,0.076c0.235,0.777,0.443,1.363,1.015,2.019
		c1.377,1.582,2.924,0.682,2.494-1.232c-0.38-1.68-1.119-2.31-1.856-3.047C141.169,33.604,139.312,31.45,137.986,31.846z
		 M141.131,40.631c-0.829-0.821-1.251-1.725-1.331-3.036C141.091,37.862,141.895,39.477,141.131,40.631z M139.402,36.199
		c-0.701-0.443-1.588-2.153-1.606-3.218C139.436,33,139.909,35.39,139.402,36.199z"/>
	<path fill="#B1BABF" d="M138.951,30.951c-0.852-0.352-2.928-0.154-2.413,2.247c0,0,0.048,0.263,0.187,0.572l0.418,1.028
		l0.004-0.001l1.613,3.92l0.051,0.137l2.686,6.266c0,0,0.619,1.789,0.619,2.269l4.576-0.001c0,0-0.092-1.169-1.123-3.783
		c-0.778-1.974-3.461-8.078-4.004-9.351C140.945,32.808,140.12,31.433,138.951,30.951z M141.031,36.591
		c0.738,0.738,1.478,1.362,1.855,3.042c0.432,1.914-1.117,2.803-2.492,1.221c-0.57-0.656-0.778-1.263-1.016-2.041l-0.033-0.12
		c-0.236-1.003-0.189-1.655-0.189-1.655C138.2,36.198,137.848,35,137.544,35h0.002c-0.08-1-0.178-0.643-0.178-0.643
		c-0.568-2.063,0.618-2.425,0.618-2.425C139.312,31.537,141.169,33.599,141.031,36.591z"/>
	<path fill="#B1BABF" d="M137.796,32.981c0.019,1.064,0.905,2.774,1.606,3.218C139.909,35.39,139.436,33,137.796,32.981z"/>
	<path fill="#B1BABF" d="M141.131,40.631c0.764-1.154-0.04-2.769-1.331-3.036C139.879,38.906,140.302,39.81,141.131,40.631z"/>
	<path fill="#B1BABF" d="M140.593,45.553c-0.442-1.146-3.851-9.008-4.676-10.936c-0.508-1.186-0.573-1.981-0.547-2.417
		c0.011-0.195,0.041-0.246,0.056-0.26l-1.435,0.752c-1.031,1.307,0.343,4.746,0.343,4.746s1.033,3.232,2.338,6.464
		c3.439-0.893,6.442,5.341-0.158,5.892C137.109,52.316,142.795,51.261,140.593,45.553z"/>
	<path fill="#B1BABF" d="M135.427,31.94l0.011-0.005C135.438,31.935,135.434,31.935,135.427,31.94z"/>
	<path fill="#B1BABF" d="M131.998,37.163c0.966,2.924,2.499,7.152,2.499,7.152l1.237-0.228l-2.361-6.58c0,0-1.008-2.292-0.391-4.356
		l-1.053,0.504C131.93,33.654,131.264,34.938,131.998,37.163z"/>
	<path fill="#B1BABF" d="M140.825,50.917c4.583,0.321,5.386-1.65,5.386-1.65c-1.466-0.024-4.218-0.024-4.218-0.024
		C141.923,50.137,140.825,50.917,140.825,50.917z"/>
	<path fill="#B1BABF" d="M87.411,74.086c0.759-0.068,1.627,0.675,1.627,0.675l1.646,1.81l6.174-10.042
		c0.925-1.446,2.276-3.22,2.517-3.558c0.035-0.049,0.047-0.069,0.031-0.052c0,0-0.657-1.37-1.093-2.264
		c-0.106-0.217-0.199-0.408-0.267-0.542c-0.487-0.974-0.139-1.721-0.139-1.721c0.004-0.005,0.003-0.004,0.006-0.008
		c0.032-0.038,0.033-0.042,0-0.006c-0.249,0.271-2.208,2.517-3.155,4.079C93.723,63.999,90.749,68.673,87.411,74.086z"/>
	<path fill="#B1BABF" d="M168.223,87.074c-0.041-0.004-0.072-0.004-0.072-0.004C168.172,87.07,168.198,87.072,168.223,87.074z"/>
	<path fill="#B1BABF" d="M175.507,86.657c0,0-5.42,0.541-7.284,0.417c0.199,0.015,0.815,0.104,1.439,0.615
		C169.663,87.689,174.167,87.034,175.507,86.657z"/>
	<path fill="#B1BABF" d="M137.775,100.664c0,0,0.088,1.65-0.094,3.575l19.737,3.28c0,0-1.103-2.545-1.442-3.533L137.775,100.664z"/>
	<path fill="#B1BABF" d="M163.609,107.175l5.295-1.102c0,0,1.445,0.093,0.895-1.765c0,0-2.889,0.047-7.494-0.021L163.609,107.175z"
		/>
	<path fill="#B1BABF" d="M139.62,62.548l11.911,27.892c0,0,2.027-0.224,3.712-0.527c0,0-11.479-27.223-12.259-28.805
		C142.984,61.106,140.904,61.153,139.62,62.548z"/>
	<path fill="#B1BABF" d="M158.889,108.023c0,0,3.096-0.414,3.713-0.688c0,0-0.727-1.642-1.752-4.044
		c-0.932-2.186-2.108-4.998-3.217-7.794c-0.017-0.044-0.035-0.087-0.052-0.13c0,0-3.204,0.47-3.851,0.551
		c0,0,0.024,0.062,0.068,0.168c0.312,0.755,1.665,4.014,2.91,6.957C157.691,105.366,158.605,107.489,158.889,108.023z"/>
	<path fill="#B1BABF" d="M165.49,113.18c0,0-2.958,0.553-3.715,0.688c0,0,4.865,8.358,12.338,12.218
		c0.014,0.007,0.027,0.016,0.043,0.023c0,0-0.207-3.438-0.346-4.676c0,0-0.049-0.033-0.138-0.094
		C172.852,120.775,168.471,117.65,165.49,113.18z"/>
	<path fill="#B1BABF" d="M190.455,127.486c0,0,0.962,2.888-9.628,4.263c0,0,6.327-0.896,8.046-3.024c0,0,1.65-1.375-1.719-2.132
		c-3.277-0.737-3.784-0.345-6.947-1.72c0,0,0.207,3.095,0.139,3.852c0,0,2.062,0.617,3.231,0.549c0,0,0.069-0.961-2.614-1.785
		c0,0,11.555,1.099-0.619,3.713c0,0,0.069,2.406-0.273,3.92c0,0,6.306-1.653,8.253-2.2
		C190.523,132.301,194.788,130.305,190.455,127.486z"/>
	<path fill="#B1BABF" d="M127.27,112.052l-5.595-12.632c0,0-2.407-0.436-3.623,1.491c3.589,7.845,4.404,9.78,5.091,11.278
		C125.755,112.396,127.27,112.052,127.27,112.052z"/>
	<path fill="#B1BABF" d="M119.084,93.346l-17.182-36.915c-0.021-0.035-0.146-0.262-0.586-0.27c-0.621-0.008-1.541,0.451-2.007,1.234
		c-0.354,0.595-0.633,1.279-0.285,2.105c0.012,0.023,8.583,17.977,15.726,33.593C116.561,93.473,119.084,93.346,119.084,93.346z"/>
	<path fill="#B1BABF" d="M175.072,134.868c1.307,2.065,2.941,0.881,2.941,0.881c0.607-0.315,0.947-0.956,0.997-1.752
		c0.913-14.608-4.391-34.747-10.177-45.408c-0.83-0.679-1.826-0.671-2.572-0.332c-0.391,0.175-0.857,0.548-0.871,0.667l-0.045,0.346
		l0.288,1.207c0,0-0.96-0.947-1.989-0.81c-8.597,1.528-29.451,4.651-42.756,4.825c-0.186,0.002-4.408-0.045-7.332-0.414
		c-5.742-0.725-9.164-2.325-13.285-5.533c-3.644-3.809-10.724-11.25-12.032-13.003c-0.618-0.717-1.851-0.308-2.406,0.128
		c-0.784,0.617-1.182,1.791-0.435,2.844c2.989,3.275,10.423,10.35,10.497,10.422c6.713,7.282,13.652,8.703,19.732,9.045
		c3.601,0.246,8.345,0.283,8.392,0.28c11.195-0.671,29.557-2.932,40.528-5.135c1.236-0.272,1.375-1.584,1.375-1.584
		c0.275,0.55,0.136,1.417,0.136,1.417c1.041,0.207,1.604,1.425,1.635,1.531l-0.021-0.053c1.083,2.729,3.252,9.582,3.277,9.653
		c0,0,0.825,3.37,0.476,3.954c0,0-0.619-0.911-1.515-0.771l-0.036,0.015c-0.001,0-0.039,0.005-0.039,0.005l-2.471,0.445
		c-11.952,2.154-24.311,4.382-38.756,5.414c-0.082,0.017-3.777,0.641-10.551-0.371c-0.009,0-41.211-7.077-44.292-7.605
		c-0.12-0.021-0.189-0.033-0.189-0.033c-0.045-0.055-0.242,0.336-0.39,0.89c-0.159,0.595-0.26,1.377-0.048,2.002
		c0,0,0.195,0.813,0.86,1.036c0.019,0.007,43.667,7.16,43.667,7.16c3.782,0.803,7.515,0.812,9.865,0.787l1.331-0.039
		c1.677-0.07,2.621-0.215,2.643-0.22c12.367-1.25,28.034-3.243,38.16-5.655c0,0,1.979-0.107,2.171-1.68
		c0.042-0.352,0.339,1.546,0.339,1.546c0.686,0.21,1.088,1.367,1.109,1.593c1.808,6.521,2.001,16.14,2.021,16.601
		c0,0-0.033,3.16-0.514,4.125c-0.572-0.82-1.713-0.597-1.713-0.597c-16.422,4.199-35.398,1.416-42.834-14.498
		c0,0-2.312-0.172-3.48,1.41C131.436,129.938,139.75,134,146.921,136h26.399c0.211,0,0.423,0.102,0.634,0.047
		C175.4,135.566,175.072,134.868,175.072,134.868z"/>
	<path fill="#B1BABF" d="M75.069,98.006l0.023,0.01c0.002,0.002,0.023,0.018,0.023,0.018l7.587,4.654l0.884,0.529l-0.004,0.01
		l2.445,1.498c1.801,1.2,3.959,0.239,5.083-1.271c0.994-1.335,1.376-3.253-0.657-5.184c0,0-0.351-0.465-2.104-1.438
		c-1.629-0.907-7.292-4.333-9.984-6.021c0,0-1.066-0.619-1.409-1.375c-0.346,0.599-1.128,1.889-2.73,4.145
		c-0.701,0.986-0.95,1.887-0.738,2.672C73.805,97.419,75.057,98,75.069,98.006z M79.677,97.111c0.242-0.655,0.735-1.883,2.853-2.028
		L82.549,95h0.017c2.643,0,3.567,2.04,3.75,2.764c1.763-0.218,3.056,0.976,3.113,1.027c2.12,2.077,0.667,3.996,0.654,4.011
		c-0.016,0.023-1.773,2.448-4.964,0.552c-0.436-0.261-0.819-0.653-1.05-1.082l-0.005,0.014c-0.266-0.49-0.385-0.846-0.385-0.846
		c-2.704,0.42-3.734-1.604-3.746-1.629C79.135,98.562,79.677,97.111,79.677,97.111z"/>
	<path fill="#B1BABF" d="M93.703,99.5c0,0,1.536-2.59-1.306-4.745c-1.585-1.202-5.256-3.606-8.045-5.403l-0.656,0.631
		c0,0,6.185,4.121,7.772,5.186C93.285,96.386,93.989,97.941,93.703,99.5z"/>
	<path fill="#B1BABF" d="M78.845,90.092c2.668,1.669,11.373,6.794,11.373,6.794s2.352,1.492,2.454,3.382
		c0.71-2.019-0.487-3.512-1.702-4.383l-8.099-5.422c-1.513,0.414-4.712-1.263-4.592-3.346
		C77.472,87.809,77.321,89.136,78.845,90.092z"/>
	<path fill="#B1BABF" d="M85.491,100.113c0.349,1.847,1.517,2.672,3.595,2.397l0.432-0.069c1.196-1.746-0.666-4.125-3.052-4.056
		C86.344,99.236,85.815,99.876,85.491,100.113z"/>
	<path fill="#B1BABF" d="M84.115,100.729c0.52,2.617,3.346,3.239,4.812,2.312c-1.172,0.188-3.591,0.113-3.978-2.669
		c-1.759,0.649-4.899,0.149-4.625-3.289C79.385,99.616,81.896,101.404,84.115,100.729z"/>
	<path fill="#B1BABF" d="M170.494,88.721c0.857,1.668,1.195,2.711,1.49,3.362c-0.115,0.071,1.283-0.226,2.68-0.487
		c1.949-0.371,3.352-0.726,4.592-1.033c0,0,1.07-0.238,1.666-0.562c0.221-0.069,0.391-0.164,0.528-0.271
		c0.646-0.498,0.479-1.291,0.44-1.541c-0.121-0.799-0.543-1.381-1.531-1.545c0,0-0.25,0.025-0.604,0.08
		c-0.407,0.062-0.95,0.156-1.411,0.287C175.926,87.624,173.152,88.227,170.494,88.721z"/>
	<path fill="#B1BABF" d="M186.627,107.495c2.13-0.896,1.307-3.392,1.307-3.392c-0.826-2.891-4.606-1.582-4.606-1.582
		c-1.789,0.412-7.152,1.442-7.152,1.442l0.345,0.963c1.442-0.138,7.703-1.72,7.703-1.72c1.19-0.021,1.236,0.777,1.236,0.777
		c-2.407,0.896-8.572,2.18-8.572,2.18c0.273,1.17,0.871,3.439,0.871,3.439C185.045,108.298,186.627,107.495,186.627,107.495z"/>
	<path fill="#B1BABF" d="M188.091,102.411c1.83,1.901,1.334,5.35-0.891,6.069c0,0,2.017,10.181,2.567,15.773
		c0.065,1.029,0.021,1.878,0.021,1.878c2.2,0.459,3.483,1.996,3.483,2.819c1.078-6.417-2.684-24.986-7.519-38.535
		c-1.33-4.999-4.22-4.378-4.22-4.378c1.582,0.479,2.431,3.142,0.093,4.858c0,0,1.81,4.47,3.095,10.246
		c0.229-0.002,0.445,0.012,0.655,0.032C186.57,101.296,187.467,101.764,188.091,102.411z"/>
	<path fill="#B1BABF" d="M134.829,73.35c0,0-0.402,1.926-0.448,4.609c0,0,6.391,8.484,15.395,11.445
		c0.004,0,0.009,0.002,0.013,0.004l-1.854-4.538c0,0-0.033-0.015-0.092-0.04C147.02,84.452,140.633,81.344,134.829,73.35z"/>
	<path fill="#B1BABF" d="M164.297,88.445c0,0,0.069-0.963,1.102-1.103c0,0-4.334,0.481-10.313-0.345l1.167,2.686
		C156.251,89.684,161.82,89.064,164.297,88.445z"/>
	<path fill="#B1BABF" d="M72.747,97.461l-5.778,8.816c-0.295,0.416-0.342,0.837-0.143,1.255c0.325,0.686,1.236,1.247,2.122,1.307
		c0.46,0.032,1.095-0.062,1.498-0.68c0.004-0.009,4.349-6.462,5.564-8.259c0,0-0.743-0.446-1.524-0.979
		c-0.281-0.19-0.566-0.394-0.823-0.588C73.22,97.998,72.86,97.68,72.747,97.461z"/>
	<path fill="#B1BABF" d="M136.768,48.512l0.67-0.134c1.426-0.221,1.808-1.096,1.696-1.84c-0.122-0.837-1.091-1.642-2.256-1.478
		c-10.927,1.765-23.569,5.022-29.667,7.576c-2.1,0.875-3.859,1.703-5.057,2.509c0.383,0.219,0.633,0.185,1.025,1.137
		c0.225,0.542,1.047,2.233,1.047,2.233c1.463-1.109,2.99-1.967,5.6-2.907C118.109,52.242,128.021,50.259,136.768,48.512z"/>
	<path fill="#B1BABF" d="M79.696,86.753l-0.026,0.031c-0.518,0.616,0.342,1.5,0.52,1.672c0.782,0.754,2.034,1.235,2.627,0.767
		l0.608-0.964l3.821-6.05c0,0-1.762-1.589-2.862-3.102c-2.86,4.637-4.065,6.615-4.482,7.306c-0.114,0.188-0.17,0.28-0.185,0.306
		L79.696,86.753z"/>
	<path fill="#B1BABF" d="M147.814,47.701c2.34,0.029,5.438,0.484,6.381,0.769c1.426,0.001,1.676-0.941,1.713-1.357
		c0.068-0.77-0.357-1.701-1.076-1.805l-0.049-0.007l-0.049-0.016c-1.014-0.341-5.898-0.904-7.812-1.089
		C146.925,44.195,147.814,46.257,147.814,47.701z"/>
	<path fill="#B1BABF" d="M153.753,49.519c-0.585-0.178-1.112-0.28-1.547-0.339c-0.739-0.1-1.204-0.073-1.204-0.073
		c2.874,3.924,10.371,1.602,6.327-4.815l-7.083-12.997l-2.889,1.238l4.951,11.141c0.414,0.069,1.375,0.072,3.025,0.551
		c1.859,0.539,2.359,3.2,1.064,4.549C155.852,49.345,154.982,49.682,153.753,49.519z"/>
	<path fill="#B1BABF" d="M151.141,43.603l-4.678-10.728l-1.307,0.55l3.508,9.835C148.664,43.261,150.453,43.467,151.141,43.603z"/>
	<path fill="#B1BABF" d="M84.019,98.996c-0.327,0.013-0.631-0.04-0.905-0.133c0.019,0.371,0.027,0.709,0.117,1.043
		c1.663,0.256,2.481-0.797,2.577-1.566l-0.138-0.016c0.062-1.069-0.798-2.104-1.979-2.479c-0.365,0.674-0.556,1.49-0.585,2.395
		c0.321,0.138,0.612,0.25,0.946,0.273C84.052,98.514,84.008,98.841,84.019,98.996z"/>
	<path fill="#B1BABF" d="M82.037,99.545c0.114,0.053,0.176,0.143,0.284,0.184c-0.095-0.34-0.116-0.723-0.124-1.227
		c-0.21-0.145-0.375-0.202-0.479-0.383l0.002-0.578c0.162,0.175,0.289,0.188,0.455,0.318c0.047-0.805,0.174-1.588,0.514-2.112
		c-0.796-0.04-1.221,0.162-1.757,0.604C80.933,96.354,80.383,98.613,82.037,99.545z"/>
</g>
</svg>
